<svg id="Layer_2" enable-background="new 0 0 64 64" height="512" viewBox="0 0 64 64" width="512" xmlns="http://www.w3.org/2000/svg"><path d="m34.654 9.081c0 1.468-1.19 2.658-2.658 2.658s-2.657-1.19-2.657-2.658 1.189-2.658 2.657-2.658 2.658 1.19 2.658 2.658z" fill="#f9dd9d"/><path d="m31.996 12.238c-1.741 0-3.157-1.417-3.157-3.158s1.417-3.158 3.157-3.158c1.741 0 3.158 1.417 3.158 3.158s-1.417 3.158-3.158 3.158zm0-5.315c-1.189 0-2.157.968-2.157 2.158s.968 2.158 2.157 2.158c1.19 0 2.158-.968 2.158-2.158s-.968-2.158-2.158-2.158z" fill="#63312d"/><path d="m34.654 54.842c0 1.468-1.19 2.658-2.658 2.658s-2.657-1.19-2.657-2.658 1.189-2.658 2.657-2.658 2.658 1.191 2.658 2.658z" fill="#f9dd9d"/><path d="m31.996 58c-1.741 0-3.157-1.417-3.157-3.158s1.417-3.158 3.157-3.158c1.741 0 3.158 1.417 3.158 3.158s-1.417 3.158-3.158 3.158zm0-5.315c-1.189 0-2.157.968-2.157 2.158s.968 2.157 2.157 2.157c1.19 0 2.158-.968 2.158-2.158s-.968-2.157-2.158-2.157z" fill="#63312d"/><path d="m54.878 34.619c-1.468 0-2.658-1.19-2.658-2.658s1.191-2.658 2.658-2.658c1.468 0 2.657 1.19 2.657 2.658s-1.189 2.658-2.657 2.658z" fill="#f9dd9d"/><path d="m54.878 35.119c-1.741 0-3.158-1.417-3.158-3.158s1.417-3.158 3.158-3.158 3.157 1.417 3.157 3.158-1.416 3.158-3.157 3.158zm0-5.315c-1.19 0-2.158.968-2.158 2.158s.968 2.158 2.158 2.158c1.189 0 2.157-.968 2.157-2.158s-.968-2.158-2.157-2.158z" fill="#63312d"/><path d="m9.116 34.619c-1.468 0-2.658-1.19-2.658-2.658s1.19-2.658 2.658-2.658 2.657 1.19 2.657 2.658-1.189 2.658-2.657 2.658z" fill="#f9dd9d"/><g fill="#63312d"><path d="m9.116 35.119c-1.741 0-3.158-1.417-3.158-3.158s1.417-3.158 3.158-3.158 3.157 1.417 3.157 3.158-1.416 3.158-3.157 3.158zm0-5.315c-1.19 0-2.158.968-2.158 2.158s.968 2.158 2.158 2.158c1.189 0 2.157-.968 2.157-2.158s-.967-2.158-2.157-2.158z"/><path d="m31.496 11.738h1v40.446h-1z"/><path d="m11.773 31.461h40.446v1h-40.446z"/><path d="m10.255 31.461h43.482v1h-43.482z" transform="matrix(.707 -.707 .707 .707 -13.228 31.986)"/><path d="m31.497 11.737h1v40.446h-1z" transform="matrix(.707 -.707 .707 .707 -13.228 31.986)"/></g><path d="m34.027 19.792h-4.062v24.339h4.062c6.721 0 12.17-5.449 12.17-12.17s-5.449-12.169-12.17-12.169z" fill="#52b8d9"/><path d="m34.027 44.631h-4.062c-.276 0-.5-.224-.5-.5v-24.339c0-.276.224-.5.5-.5h4.062c6.986 0 12.67 5.683 12.67 12.669s-5.683 12.67-12.67 12.67zm-3.561-1h3.562c6.435 0 11.67-5.235 11.67-11.67 0-6.434-5.235-11.669-11.67-11.669h-3.562z" fill="#63312d"/><path d="m17.795 31.961c0 6.721 5.449 12.17 12.171 12.17 6.721 0 12.17-5.449 12.17-12.17s-5.449-12.169-12.17-12.169c-6.722 0-12.171 5.448-12.171 12.169z" fill="#84dbff"/><path d="m19.795 31.961c0-6.384 4.919-11.608 11.171-12.119-.33-.026-.662-.05-1-.05-6.722 0-12.171 5.448-12.171 12.169s5.449 12.17 12.171 12.17c.338 0 .67-.024 1-.05-6.252-.511-11.171-5.736-11.171-12.12z" fill="#caf4ff"/><path d="m29.966 44.631c-6.987 0-12.671-5.684-12.671-12.67s5.684-12.669 12.671-12.669c6.986 0 12.67 5.683 12.67 12.669s-5.684 12.67-12.67 12.67zm0-24.339c-6.436 0-11.671 5.235-11.671 11.669 0 6.435 5.235 11.67 11.671 11.67 6.435 0 11.67-5.235 11.67-11.67 0-6.434-5.235-11.669-11.67-11.669z" fill="#63312d"/><path d="m33.953 28.828c0 2.203-1.786 3.988-3.988 3.988-2.2 0-3.985-1.785-3.985-3.988s1.785-3.986 3.985-3.986c2.202 0 3.988 1.783 3.988 3.986z" fill="#f8f3f3"/><path d="m29.965 33.315c-2.473 0-4.485-2.013-4.485-4.488 0-2.474 2.012-4.486 4.485-4.486 2.475 0 4.488 2.012 4.488 4.486 0 2.475-2.014 4.488-4.488 4.488zm0-7.973c-1.922 0-3.485 1.564-3.485 3.486 0 1.923 1.563 3.488 3.485 3.488 1.923 0 3.488-1.564 3.488-3.488 0-1.922-1.565-3.486-3.488-3.486z" fill="#63312d"/><path d="m35.967 38.445c-.202-3.144-2.809-5.63-6.002-5.63-3.192 0-5.798 2.486-6 5.63z" fill="#f8f3f3"/><path d="m35.967 38.945h-12.002c-.138 0-.27-.057-.365-.158s-.143-.236-.134-.374c.22-3.419 3.075-6.098 6.499-6.098 3.425 0 6.281 2.679 6.501 6.098.009.138-.04.273-.134.374-.095.101-.227.158-.365.158zm-11.443-1h10.884c-.428-2.636-2.723-4.63-5.443-4.63-2.718 0-5.013 1.995-5.441 4.63z" fill="#63312d"/><path d="m3.148 52.963c0 4.355 3.532 7.887 7.89 7.887 4.356 0 7.887-3.532 7.887-7.887 0-4.356-3.531-7.888-7.887-7.888-4.357.001-7.89 3.532-7.89 7.888z" fill="#84dbff"/><path d="m5.148 52.963c0-4.017 3.005-7.325 6.89-7.817-.329-.042-.661-.07-1-.07-4.357 0-7.89 3.532-7.89 7.888 0 4.355 3.532 7.887 7.89 7.887.339 0 .671-.029 1-.07-3.885-.493-6.89-3.802-6.89-7.818z" fill="#caf4ff"/><path d="m11.038 61.351c-4.626 0-8.39-3.763-8.39-8.387 0-4.625 3.764-8.388 8.39-8.388 4.625 0 8.387 3.763 8.387 8.388 0 4.624-3.762 8.387-8.387 8.387zm0-15.775c-4.075 0-7.39 3.314-7.39 7.388 0 4.073 3.315 7.387 7.39 7.387 4.073 0 7.387-3.314 7.387-7.387 0-4.074-3.314-7.388-7.387-7.388z" fill="#63312d"/><path d="m13.622 50.933c0 1.427-1.158 2.585-2.586 2.585-1.426 0-2.583-1.157-2.583-2.585s1.157-2.583 2.583-2.583c1.428-.001 2.586 1.155 2.586 2.583z" fill="#f8f3f3"/><path d="m11.036 54.017c-1.7 0-3.083-1.384-3.083-3.084s1.383-3.083 3.083-3.083c1.702 0 3.086 1.383 3.086 3.083s-1.384 3.084-3.086 3.084zm0-5.168c-1.148 0-2.083.935-2.083 2.083 0 1.149.935 2.084 2.083 2.084 1.15 0 2.086-.935 2.086-2.084 0-1.148-.935-2.083-2.086-2.083z" fill="#63312d"/><path d="m14.927 57.166c-.132-2.038-1.82-3.649-3.891-3.649-2.069 0-3.758 1.611-3.889 3.649z" fill="#f8f3f3"/><path d="m14.927 57.666h-7.78c-.138 0-.27-.057-.365-.158-.094-.101-.143-.236-.134-.375.148-2.308 2.076-4.117 4.388-4.117s4.24 1.808 4.39 4.117c.009.138-.04.273-.134.374-.095.102-.227.159-.365.159zm-7.204-1h6.628c-.345-1.522-1.71-2.649-3.315-2.649s-2.969 1.127-3.313 2.649z" fill="#63312d"/><path d="m45.075 11.037c0 4.356 3.531 7.887 7.889 7.887 4.355 0 7.888-3.532 7.888-7.887 0-4.356-3.532-7.888-7.888-7.888-4.358 0-7.889 3.532-7.889 7.888z" fill="#84dbff"/><path d="m47.075 11.037c0-4.017 3.005-7.325 6.889-7.817-.328-.042-.66-.07-1-.07-4.358 0-7.889 3.532-7.889 7.888s3.531 7.887 7.889 7.887c.34 0 .672-.029 1-.07-3.884-.493-6.889-3.802-6.889-7.818z" fill="#caf4ff"/><path d="m52.964 19.424c-4.625 0-8.389-3.763-8.389-8.387 0-4.625 3.763-8.388 8.389-8.388 4.625 0 8.388 3.763 8.388 8.388s-3.763 8.387-8.388 8.387zm0-15.775c-4.074 0-7.389 3.314-7.389 7.388 0 4.073 3.314 7.387 7.389 7.387 4.074 0 7.388-3.314 7.388-7.387 0-4.074-3.314-7.388-7.388-7.388z" fill="#63312d"/><path d="m55.548 9.006c0 1.427-1.158 2.585-2.585 2.585s-2.583-1.157-2.583-2.585 1.156-2.583 2.583-2.583 2.585 1.156 2.585 2.583z" fill="#f8f3f3"/><path d="m52.963 12.091c-1.7 0-3.083-1.384-3.083-3.084s1.383-3.083 3.083-3.083c1.701 0 3.085 1.383 3.085 3.083s-1.384 3.084-3.085 3.084zm0-5.168c-1.148 0-2.083.935-2.083 2.083 0 1.149.935 2.084 2.083 2.084 1.149 0 2.085-.935 2.085-2.084s-.936-2.083-2.085-2.083z" fill="#63312d"/><path d="m56.852 15.24c-.131-2.038-1.82-3.649-3.89-3.649-2.069 0-3.759 1.611-3.89 3.649z" fill="#f8f3f3"/><path d="m56.853 15.74h-7.779c-.138 0-.27-.057-.365-.158-.094-.101-.143-.236-.134-.375.148-2.309 2.076-4.117 4.389-4.117s4.24 1.808 4.389 4.117c.009.138-.04.273-.134.375-.096.101-.228.158-.366.158zm-7.204-1h6.628c-.344-1.522-1.709-2.649-3.314-2.649s-2.97 1.127-3.314 2.649z" fill="#63312d"/><path d="m8.199 13.754c0 3.067 2.487 5.554 5.556 5.554 3.066 0 5.554-2.487 5.554-5.554s-2.487-5.554-5.554-5.554c-3.069 0-5.556 2.486-5.556 5.554z" fill="#84dbff"/><path d="m13.755 19.808c-3.339 0-6.056-2.716-6.056-6.054s2.717-6.054 6.056-6.054c3.338 0 6.054 2.716 6.054 6.054s-2.716 6.054-6.054 6.054zm0-11.108c-2.788 0-5.056 2.267-5.056 5.054s2.268 5.054 5.056 5.054c2.787 0 5.054-2.267 5.054-5.054s-2.267-5.054-5.054-5.054z" fill="#63312d"/><path d="m15.574 12.324c0 1.005-.815 1.82-1.82 1.82s-1.819-.815-1.819-1.82.814-1.819 1.819-1.819 1.82.813 1.82 1.819z" fill="#f8f3f3"/><path d="m13.754 14.644c-1.279 0-2.319-1.041-2.319-2.32s1.041-2.319 2.319-2.319c1.279 0 2.32 1.04 2.32 2.319s-1.041 2.32-2.32 2.32zm0-3.639c-.728 0-1.319.592-1.319 1.319 0 .728.592 1.32 1.319 1.32.728 0 1.32-.592 1.32-1.32 0-.727-.592-1.319-1.32-1.319z" fill="#63312d"/><path d="m16.493 16.713c-.093-1.435-1.282-2.569-2.739-2.569-1.458 0-2.646 1.134-2.739 2.569z" fill="#f8f3f3"/><path d="m16.493 17.213h-5.479c-.138 0-.27-.057-.365-.158s-.143-.236-.134-.374c.11-1.703 1.533-3.037 3.238-3.037s3.128 1.334 3.238 3.037c.009.138-.04.273-.134.374s-.226.158-.364.158zm-4.88-1h4.281c-.29-.913-1.146-1.569-2.141-1.569s-1.85.656-2.14 1.569z" fill="#63312d"/><path d="m44.716 50.27c0 3.067 2.486 5.554 5.555 5.554 3.067 0 5.554-2.487 5.554-5.554s-2.486-5.554-5.554-5.554c-3.069 0-5.555 2.487-5.555 5.554z" fill="#84dbff"/><path d="m50.271 56.324c-3.338 0-6.055-2.716-6.055-6.054s2.716-6.054 6.055-6.054c3.338 0 6.054 2.716 6.054 6.054-.001 3.338-2.717 6.054-6.054 6.054zm0-11.108c-2.787 0-5.055 2.267-5.055 5.054s2.268 5.054 5.055 5.054 5.054-2.267 5.054-5.054c-.001-2.787-2.268-5.054-5.054-5.054z" fill="#63312d"/><path d="m52.09 48.84c0 1.005-.815 1.82-1.82 1.82-1.004 0-1.818-.814-1.818-1.82 0-1.005.814-1.819 1.818-1.819s1.82.813 1.82 1.819z" fill="#f8f3f3"/><path d="m50.27 51.16c-1.278 0-2.318-1.041-2.318-2.32s1.04-2.319 2.318-2.319c1.279 0 2.32 1.04 2.32 2.319s-1.041 2.32-2.32 2.32zm0-3.639c-.727 0-1.318.592-1.318 1.319 0 .728.591 1.32 1.318 1.32.728 0 1.32-.592 1.32-1.32 0-.727-.592-1.319-1.32-1.319z" fill="#63312d"/><path d="m53.009 53.229c-.093-1.435-1.281-2.569-2.739-2.569-1.457 0-2.646 1.134-2.738 2.569z" fill="#f8f3f3"/><path d="m53.009 53.729h-5.478c-.138 0-.27-.057-.365-.158-.094-.101-.143-.236-.134-.374.109-1.704 1.531-3.038 3.237-3.038s3.128 1.334 3.238 3.037c.009.138-.04.273-.134.374-.094.102-.226.159-.364.159zm-4.88-1h4.281c-.29-.913-1.146-1.569-2.141-1.569s-1.851.656-2.14 1.569z" fill="#63312d"/></svg>