<svg id="Layer_2" enable-background="new 0 0 64 64" height="512" viewBox="0 0 64 64" width="512" xmlns="http://www.w3.org/2000/svg"><path d="m48.11 43.146-1.27-10.742c0-5.482-4.443-9.926-9.925-9.926h-9.829c-5.481 0-9.925 4.443-9.925 9.926l-1.271 10.742z" fill="#82d9ff"/><path d="m29.086 22.479h-2c-5.481 0-9.925 4.443-9.925 9.926l-1.271 10.741h2l1.271-10.742c0-5.482 4.443-9.925 9.925-9.925z" fill="#caf4ff"/><path d="m48.11 43.646h-32.22c-.143 0-.279-.061-.374-.168-.095-.106-.14-.249-.123-.391l1.271-10.742c-.003-5.69 4.673-10.367 10.421-10.367h9.829c5.748 0 10.425 4.677 10.425 10.426l1.267 10.684c.017.142-.028.284-.123.391-.094.106-.23.167-.373.167zm-31.658-1h31.096l-1.205-10.184c-.003-5.256-4.231-9.484-9.428-9.484h-9.829c-5.197 0-9.425 4.229-9.425 9.426z" fill="#63312d"/><path d="m27.086 22.479 4.716 20.578 4.716-20.578z" fill="#f8f3f3"/><path d="m32.654 27.955.853-1.359-1.705-1.578-1.705 1.578.852 1.359-1.681 4.045 2.534 11.057 2.534-11.057z" fill="#f9a287"/><path d="m31.802 43.557c-.233 0-.435-.161-.487-.388l-2.535-11.057c-.023-.102-.014-.208.025-.304l1.583-3.806-.715-1.141c-.127-.204-.092-.469.084-.633l1.705-1.578c.192-.177.487-.177.68 0l1.705 1.578c.176.164.211.429.084.633l-.715 1.141 1.583 3.806c.04.096.049.202.025.304l-2.534 11.057c-.053.227-.255.388-.488.388zm-2.011-11.513 2.011 8.774 2.011-8.774-1.621-3.897c-.062-.149-.048-.32.038-.458l.633-1.008-1.062-.982-1.062.982.633 1.008c.086.137.1.308.038.458z" fill="#63312d"/><path d="m31.802 25.018-3.41 3.16-1.306-5.699.41-.004z" fill="#f8f3f3"/><path d="m27.086 22.479 4.716 20.578-6.085-8.514.724-4.1-3.38-2.412 1.716-5.279c-.001 0 1.056-.277 2.309-.273z" fill="#f8f3f3"/><path d="m31.802 25.018 3.41 3.16 1.306-5.699-.411-.004z" fill="#f8f3f3"/><path d="m28.392 28.678c-.049 0-.099-.007-.147-.022-.17-.053-.3-.192-.34-.366l-1.306-5.699c-.034-.148.001-.303.095-.421.094-.119.236-.189.388-.19l.41-.004c.095-.021.181.023.259.069l4.306 2.543c.136.081.226.22.243.377s-.042.313-.157.42l-3.41 3.16c-.095.086-.217.133-.341.133zm-.624-5.462.918 4.007 2.284-2.116z" fill="#63312d"/><path d="m35.212 28.678c-.124 0-.246-.046-.34-.133l-3.41-3.16c-.116-.107-.174-.263-.157-.42s.107-.297.243-.377l4.306-2.543c.077-.045.165-.069.254-.069h.005l.41.004c.151.001.294.071.388.19s.128.273.095.421l-1.306 5.699c-.04.174-.169.313-.34.366-.049.014-.099.022-.148.022zm-2.578-3.571 2.284 2.116.918-4.007z" fill="#63312d"/><path d="m36.518 22.479-4.716 20.578 6.085-8.514-.724-4.1 3.38-2.412-1.746-5.375c0 .001-1.026-.181-2.279-.177z" fill="#f8f3f3"/><g fill="#63312d"><path d="m31.802 43.557c-.157 0-.311-.074-.407-.209l-6.085-8.514c-.078-.109-.109-.245-.085-.377l.668-3.789-3.123-2.229c-.178-.127-.252-.354-.185-.562l1.716-5.279c.053-.162.184-.286.349-.329.045-.013 1.127-.311 2.438-.29.232 0 .434.162.486.388l4.716 20.578c.053.232-.065.47-.282.568-.067.029-.137.044-.206.044zm-5.556-9.134 4.511 6.312-4.067-17.748c-.65.029-1.213.126-1.525.19l-1.515 4.66 3.082 2.199c.157.112.235.304.202.494z"/><path d="m31.802 43.557c-.069 0-.139-.014-.205-.044-.217-.098-.335-.335-.282-.568l4.716-20.578c.055-.24.283-.388.527-.388 1.264 0 2.283.178 2.327.186.182.032.331.162.388.338l1.746 5.375c.067.208-.007.435-.185.562l-3.123 2.229.668 3.789c.023.132-.007.269-.085.377l-6.085 8.514c-.097.133-.25.208-.407.208zm5.113-20.574-4.068 17.751 4.511-6.312-.687-3.893c-.034-.19.045-.382.202-.494l3.082-2.199-1.537-4.732c-.318-.041-.866-.103-1.503-.121z"/><path d="m30.949 27.455h1.797v1h-1.797z"/></g><path d="m27.496 22.475 4.306 2.543 4.305-2.543z" fill="#f9dd9d"/><path d="m31.802 25.518c-.088 0-.176-.023-.254-.069l-4.306-2.543c-.194-.115-.287-.345-.228-.563.06-.217.257-.368.482-.368h8.611c.226 0 .423.151.482.368s-.034.448-.228.563l-4.306 2.543c-.077.046-.165.069-.253.069zm-2.476-2.543 2.476 1.462 2.476-1.462z" fill="#63312d"/><path d="m22.561 30.869h1v12.188h-1z" fill="#63312d"/><path d="m41.171 30.869h1v12.188h-1z" fill="#63312d"/><path d="m41.523 12.769c0 5.369-4.353 9.723-9.722 9.723s-9.723-4.354-9.723-9.723 4.354-9.723 9.723-9.723c5.37.001 9.722 4.354 9.722 9.723z" fill="#f9dd9d"/><path d="m28.245 9.482 1.991 2.553h11.25c-.377-5.025-4.563-8.988-9.685-8.988s-9.309 3.963-9.686 8.988h4.138z" fill="#f9a287"/><path d="m32.795 3.099c-.327-.033-.658-.052-.993-.052-5.121 0-9.309 3.963-9.686 8.988h2c.352-4.691 4.024-8.457 8.679-8.936z" fill="#ffc8bb"/><path d="m41.486 12.535h-11.25c-.154 0-.299-.071-.394-.192l-1.597-2.047-1.597 2.047c-.095.122-.24.192-.394.192h-4.138c-.139 0-.272-.058-.367-.16-.094-.102-.142-.238-.132-.377.397-5.299 4.871-9.451 10.184-9.451s9.786 4.151 10.183 9.451c.01.139-.038.276-.132.377-.094.102-.227.16-.366.16zm-11.006-1h10.451c-.608-4.521-4.519-7.988-9.13-7.988-4.612 0-8.522 3.467-9.131 7.988h3.339l1.841-2.36c.189-.243.599-.243.788 0z" fill="#63312d"/><path d="m31.802 22.992c-5.637 0-10.223-4.586-10.223-10.223s4.586-10.222 10.223-10.222c5.636 0 10.222 4.586 10.222 10.223s-4.586 10.222-10.222 10.222zm0-19.445c-5.085 0-9.223 4.137-9.223 9.223s4.137 9.223 9.223 9.223c5.085 0 9.222-4.137 9.222-9.223s-4.137-9.223-9.222-9.223z" fill="#63312d"/><path d="m11.779 34.141h46.441v4.781h-46.441z" fill="#d1d1d1"/><path d="m58.221 39.422h-46.442c-.276 0-.5-.224-.5-.5v-4.781c0-.276.224-.5.5-.5h46.441c.276 0 .5.224.5.5v4.781c.001.276-.223.5-.499.5zm-45.942-1h45.441v-3.781h-45.441z" fill="#63312d"/><path d="m11.779 38.922 6.087 4.906h34.268l6.087-4.906z" fill="#db785a"/><path d="m52.134 44.328h-34.268c-.114 0-.225-.039-.314-.111l-6.087-4.906c-.165-.133-.228-.355-.158-.556.071-.2.26-.333.472-.333h46.441c.212 0 .401.134.472.333.07.2.007.423-.158.556l-6.087 4.906c-.088.072-.199.111-.313.111zm-34.092-1h33.915l4.846-3.906h-43.607z" fill="#63312d"/><path d="m47.527 60.953 4.607-17.125h-34.268l4.607 17.125z" fill="#efc36a"/><path d="m47.527 61.453h-25.054c-.226 0-.424-.152-.483-.37l-4.606-17.125c-.041-.15-.008-.311.086-.434.095-.124.241-.196.397-.196h34.268c.156 0 .302.072.397.196.094.124.126.284.086.434l-4.608 17.125c-.058.218-.257.37-.483.37zm-24.671-1h24.288l4.337-16.125h-32.962z" fill="#63312d"/><path d="m5.779 34.141h46.441v4.781h-46.441z" fill="#f8f3f3"/><path d="m52.221 39.422h-46.442c-.276 0-.5-.224-.5-.5v-4.781c0-.276.224-.5.5-.5h46.441c.276 0 .5.224.5.5v4.781c.001.276-.223.5-.499.5zm-45.942-1h45.441v-3.781h-45.441z" fill="#63312d"/><path d="m5.779 38.922 6.087 4.906h34.268l6.087-4.906z" fill="#f9a287"/><path d="m5.779 38.922 6.087 4.906h2l-6.087-4.906z" fill="#ffc8bb"/><path d="m46.134 44.328h-34.268c-.114 0-.225-.039-.314-.111l-6.087-4.906c-.165-.133-.228-.355-.158-.556.071-.2.26-.333.472-.333h46.441c.212 0 .401.134.472.333.07.2.007.423-.158.556l-6.087 4.906c-.088.072-.199.111-.313.111zm-34.092-1h33.915l4.846-3.906h-43.607z" fill="#63312d"/><path d="m41.527 60.953 4.607-17.125h-34.268l4.607 17.125z" fill="#f9dd9d"/><path d="m18.473 60.953-4.607-17.125h-2l4.607 17.125z" fill="#ffeecf"/><path d="m41.527 61.453h-25.054c-.226 0-.424-.152-.483-.37l-4.606-17.125c-.041-.15-.008-.311.086-.434.095-.124.241-.196.397-.196h34.268c.156 0 .302.072.397.196.094.124.126.284.086.434l-4.608 17.125c-.058.218-.257.37-.483.37zm-24.671-1h24.288l4.337-16.125h-32.962z" fill="#63312d"/></svg>