<svg id="Layer_2" enable-background="new 0 0 64 64" height="512" viewBox="0 0 64 64" width="512" xmlns="http://www.w3.org/2000/svg"><path d="m46.9 35.519h-29.771v25.295h6l8.871-5.637 8.9 5.637h6z" fill="#52b8d9"/><path d="m46.9 61.314h-6c-.095 0-.188-.027-.268-.078l-8.632-5.466-8.603 5.466c-.081.051-.174.078-.269.078h-6c-.276 0-.5-.224-.5-.5v-25.295c0-.276.224-.5.5-.5h29.772c.276 0 .5.224.5.5v25.295c0 .276-.223.5-.5.5zm-5.855-1h5.355v-24.295h-28.771v24.295h5.354l8.748-5.559c.164-.104.372-.104.536 0z" fill="#63312d"/><path d="m40.9 35.519h-23.771v25.295l11.885-7.553 11.886 7.553z" fill="#84dbff"/><path d="m19.129 35.519h-2v25.295l2-1.271z" fill="#caf4ff"/><path d="m30.334 51.844-1.772 1.123 12.338 7.847v-2.248z" fill="#caf4ff"/><path d="m17.129 61.314c-.083 0-.166-.021-.241-.062-.159-.087-.259-.255-.259-.438v-25.295c0-.276.224-.5.5-.5h23.771c.276 0 .5.224.5.5v25.295c0 .183-.1.351-.259.438-.16.088-.355.083-.51-.016l-11.618-7.382-11.616 7.382c-.082.052-.174.078-.268.078zm11.885-8.553c.093 0 .187.026.269.078l11.117 7.065v-23.885h-22.771v23.885l11.116-7.064c.082-.053.176-.079.269-.079z" fill="#63312d"/><path d="m34.986 39.91h-5.971v-1.013c-7.205-2.479-12.393-9.302-12.393-17.349 0-8.048 5.187-14.87 12.393-17.35v-1.012h5.971c10.141 0 18.361 8.221 18.361 18.362.001 10.141-8.22 18.362-18.361 18.362z" fill="#efc36a"/><path d="m34.986 40.41h-5.971c-.276 0-.5-.224-.5-.5v-.66c-7.428-2.713-12.393-9.782-12.393-17.702s4.965-14.989 12.393-17.703v-.66c0-.276.224-.5.5-.5h5.971c10.4 0 18.861 8.461 18.861 18.862.001 10.402-8.46 18.863-18.861 18.863zm-5.47-1h5.471c9.849 0 17.861-8.013 17.861-17.861 0-9.849-8.013-17.862-17.861-17.862h-5.471v.513c0 .213-.136.403-.337.473-7.211 2.481-12.056 9.264-12.056 16.877s4.845 14.395 12.056 16.876c.201.069.337.259.337.473z" fill="#63312d"/><path d="m47.377 21.548c0-10.142-8.221-18.362-18.361-18.362-10.141 0-18.363 8.221-18.363 18.362s8.223 18.361 18.363 18.361c10.14.001 18.361-8.22 18.361-18.361z" fill="#f9dd9d"/><path d="m42.986 21.548c0-7.717-6.254-13.972-13.971-13.972s-13.973 6.255-13.973 13.972c0 7.716 6.256 13.971 13.973 13.971s13.971-6.255 13.971-13.971z" fill="#f8f3f3"/><path d="m26.379 27.333c-.367 0-.734-.143-1.014-.422l-5.072-5.044c-.559-.56-.555-1.465.004-2.02.56-.559 1.465-.556 2.023.005l4.123 4.088 7.865-7.181c.594-.523 1.496-.467 2.018.126.523.593.467 1.496-.125 2.018l-8.877 8.072c-.271.239-.609.358-.945.358z" fill="#f9a287"/><path d="m26.379 27.833c-.516 0-1.001-.202-1.367-.568l-5.071-5.043c-.365-.366-.565-.851-.564-1.366.001-.516.203-1 .568-1.364.364-.363.848-.563 1.361-.563h.005c.516.001 1 .203 1.364.569l3.783 3.751 7.514-6.86c.394-.348.894-.514 1.404-.485.514.032.985.263 1.325.65.341.386.512.882.479 1.397-.031.514-.262.985-.648 1.327l-8.872 8.067c-.358.316-.811.488-1.281.488zm-5.074-7.903c-.237 0-.475.09-.655.27-.176.175-.273.409-.273.657s.096.48.271.656l5.071 5.042c.342.343.92.358 1.275.044l8.872-8.067c.191-.169.302-.396.317-.644.016-.248-.066-.487-.231-.673-.164-.187-.391-.298-.638-.313-.249-.02-.487.066-.675.231l-7.858 7.174c-.196.18-.5.174-.688-.014l-4.123-4.088c-.185-.183-.425-.275-.665-.275z" fill="#63312d"/><path d="m29.016 36.019c-7.98 0-14.473-6.492-14.473-14.471s6.492-14.472 14.473-14.472c7.979 0 14.471 6.492 14.471 14.472-.001 7.979-6.492 14.471-14.471 14.471zm0-27.942c-7.429 0-13.473 6.043-13.473 13.472 0 7.428 6.044 13.471 13.473 13.471 7.428 0 13.471-6.043 13.471-13.471-.001-7.429-6.044-13.472-13.471-13.472z" fill="#63312d"/><path d="m12.652 21.548c0 9.803 7.689 17.788 17.363 18.311-.334.019-.662.051-1 .051-10.141 0-18.363-8.221-18.363-18.361 0-10.142 8.223-18.362 18.363-18.362.338 0 .666.032 1 .05-9.673.521-17.363 8.508-17.363 18.311z" fill="#ffeecf"/><path d="m29.016 40.41c-10.401 0-18.863-8.461-18.863-18.861 0-10.401 8.462-18.862 18.863-18.862 10.4 0 18.861 8.461 18.861 18.862 0 10.4-8.461 18.861-18.861 18.861zm0-36.724c-9.85 0-17.863 8.013-17.863 17.862s8.014 17.861 17.863 17.861 17.861-8.013 17.861-17.861c0-9.849-8.013-17.862-17.861-17.862z" fill="#63312d"/></svg>