<svg id="Layer_2" enable-background="new 0 0 64 64" height="512" viewBox="0 0 64 64" width="512" xmlns="http://www.w3.org/2000/svg"><path d="m35.703 36.783h-4.422c-.777 0-1.523.311-2.07.862l-3.055 3.081c-.796.803-.795 2.097 0 2.9.809.814 2.126.81 2.93-.008l2.8-2.851h3.817l6.443 6.442 3.69-3.422-8.476-8.653z" fill="#f9dd9d"/><path d="m19.038 53.127c-.724-.724-.722-1.9.003-2.624l1.431-1.428c.726-.723 1.9-.721 2.625.003.724.726.722 1.901-.004 2.624l-1.431 1.427c-.725.725-1.901.724-2.624-.002z" fill="#f9dd9d"/><path d="m21.419 55.994c-.722-.726-.722-1.9.004-2.626l1.67-1.665c.726-.723 1.9-.721 2.625.003.724.726.722 1.901-.003 2.624l-1.671 1.666c-.725.725-1.9.722-2.625-.002z" fill="#f9dd9d"/><path d="m24.042 58.62c-.724-.725-.723-1.898.002-2.624l1.671-1.666c.725-.723 1.9-.723 2.624.004.724.727.723 1.901-.003 2.624l-1.669 1.666c-.727.724-1.902.723-2.625-.004z" fill="#f9dd9d"/><path d="m27.53 60.383c-.724-.725-.723-1.899.003-2.625l.803-.801c.726-.723 1.9-.723 2.625.004.724.726.722 1.9-.004 2.624l-.803.8c-.726.726-1.901.725-2.624-.002z" fill="#f9dd9d"/><path d="m44.753 49.807-4.202-4.191-4.443-4.443-7.054-3.737-2.463-1.854-8.099 7.864 3.057 5.099 9.727 9.734 1.592 1.404c.752.751 1.969.749 2.719-.002.75-.754.75-1.971-.002-2.721l-.547-.545 1.427 1.423c.751.75 1.969.747 2.72-.002.749-.753.748-1.97-.004-2.722l.597.597c.752.748 1.97.747 2.721-.003.75-.753.749-1.97-.003-2.721l-.46-.46c.752.751 1.97.75 2.72-.003.749-.749.748-1.968-.003-2.717z" fill="#f9dd9d"/><g fill="#63312d"><path d="m42.146 47.709c-.128 0-.256-.049-.354-.146l-6.297-6.295h-3.4l-2.654 2.701c-.483.492-1.128.764-1.818.766-.673.049-1.336-.266-1.822-.755-.985-.995-.985-2.611 0-3.604l3.055-3.081c.638-.642 1.521-1.01 2.425-1.01h4.215l1.511-1.503c.094-.093.22-.146.353-.146h.003c.133.001.261.055.354.15l8.476 8.653c.094.097.146.227.143.362s-.061.263-.16.354l-3.69 3.422c-.095.088-.217.132-.34.132zm-10.26-7.441h3.817c.133 0 .26.053.354.146l6.103 6.102 2.96-2.745-7.764-7.926-1.3 1.293c-.094.093-.22.146-.353.146h-4.422c-.639 0-1.264.26-1.715.715l-3.055 3.081c-.6.605-.6 1.59 0 2.196.294.297.687.46 1.105.46h.005c.42-.001.813-.167 1.107-.467l2.801-2.851c.095-.097.223-.15.357-.15z"/><path d="m34.226 60.745c-.62 0-1.239-.235-1.711-.707l-1.569-1.383.661-.75 1.592 1.404c.579.576 1.48.575 2.035.02.554-.557.553-1.46-.002-2.013l-3.184-3.176.706-.708 3.184 3.176c.945.942.947 2.479.004 3.427-.473.473-1.095.71-1.716.71z"/><path d="m37.823 58.899c-.62 0-1.239-.235-1.711-.706l-3.184-3.178.706-.708 3.184 3.178c.555.554 1.458.553 2.014-.002.552-.555.551-1.459-.004-2.014l-4.063-4.054.706-.708 4.063 4.055c.944.944.947 2.482.005 3.428-.473.473-1.095.709-1.716.709z"/><path d="m41.137 56.771c-.62 0-1.239-.234-1.711-.704l-3.184-3.178.706-.708 3.183 3.178c.556.552 1.459.552 2.014-.002.553-.556.552-1.459-.003-2.013l-3.183-3.177.706-.708 3.183 3.177c.945.943.947 2.481.004 3.428-.472.471-1.093.707-1.715.707z"/><path d="m43.394 53.591c-.646 0-1.254-.251-1.712-.708l-4.199-4.19.706-.708 4.2 4.19c.269.269.626.417 1.006.417h.002c.38 0 .737-.149 1.005-.418.269-.269.416-.626.416-1.007 0-.38-.148-.737-.417-1.005l-4.202-4.191.706-.708 4.202 4.191c.458.457.71 1.065.711 1.712s-.251 1.256-.708 1.714-1.065.711-1.712.712c-.002-.001-.003-.001-.004-.001z"/><path d="m21.121 48.803-3.057-5.099c-.12-.199-.086-.454.081-.616l8.099-7.864c.177-.171.452-.188.649-.041l2.463 1.854-.602.799-2.121-1.596-7.508 7.29 2.853 4.759z"/><path d="m20.351 54.172h-.001c-.629 0-1.221-.246-1.665-.691-.444-.444-.689-1.036-.688-1.666 0-.629.246-1.221.691-1.666l1.432-1.428c.919-.915 2.414-.913 3.332.003.445.446.689 1.038.688 1.667s-.247 1.221-.692 1.665l-1.431 1.426c-.446.445-1.038.69-1.666.69zm1.432-5.136c-.347 0-.694.131-.958.395l-1.431 1.427c-.256.255-.397.596-.397.958s.14.703.395.958c.256.256.596.397.958.398h.001c.362 0 .702-.141.958-.396l1.432-1.427c.256-.255.398-.596.398-.958s-.14-.703-.396-.959c-.264-.264-.613-.396-.96-.396z"/><path d="m22.734 57.039c-.608-.001-1.223-.246-1.668-.691 0 0 0 0-.001-.001-.915-.92-.913-2.415.005-3.332l1.67-1.666c.919-.915 2.413-.914 3.332.003.917.921.916 2.416-.003 3.332l-1.671 1.666c-.444.443-1.035.689-1.664.689zm-.961-1.398c.256.256.597.397.958.397h.002c.361 0 .701-.141.956-.396l1.672-1.667c.529-.527.529-1.387.001-1.917-.528-.528-1.389-.528-1.917-.001l-1.67 1.665c-.527.528-.528 1.389-.002 1.919z"/><path d="m25.355 59.666c-.002 0-.004 0-.005 0-.629-.001-1.22-.248-1.663-.694-.915-.918-.914-2.412.003-3.33l1.672-1.667c.444-.443 1.035-.688 1.663-.688h.002c.63 0 1.221.247 1.666.692.444.446.688 1.038.688 1.667-.001.629-.247 1.221-.693 1.665l-1.669 1.666c-.445.445-1.036.689-1.664.689zm1.67-5.378c-.361 0-.701.141-.957.396l-1.671 1.666c-.528.528-.529 1.389-.002 1.917h.002c.254.257.594.398.955.399h.003c.362 0 .702-.141.958-.396l1.669-1.666c.256-.255.398-.595.398-.957s-.14-.703-.396-.96c-.255-.256-.596-.398-.958-.398 0-.001-.001-.001-.001-.001z"/><path d="m28.842 61.429c-.001 0-.002 0-.003 0-.629 0-1.22-.247-1.664-.692-.917-.918-.915-2.413.004-3.332l.803-.801c.921-.917 2.416-.914 3.332.005.444.445.689 1.037.688 1.667-.001.629-.247 1.22-.692 1.665l-.803.8c-.445.443-1.036.688-1.665.688zm.804-4.512c-.347 0-.694.131-.958.395l-.802.8c-.529.529-.53 1.389-.002 1.917h.001c.255.257.595.398.957.398h.001c.361 0 .702-.141.958-.397l.803-.8c.256-.256.398-.596.398-.958.001-.362-.14-.703-.396-.959-.264-.264-.612-.396-.96-.396z"/></g><path d="m28.047 34.167-10.711 10.417-6.37-6.295 10.71-10.418z" fill="#f9a287"/><path d="m13.337 38.289 9.515-9.256-1.176-1.162-10.71 10.418 6.37 6.295 1.196-1.162z" fill="#ffc8bb"/><path d="m37.185 31.883h14.942v8.814h-14.942z" fill="#82d9ff" transform="matrix(.701 .714 -.714 .701 39.276 -21)"/><path d="m38.519 34.045 5.149-5.053-1.099-1.121-6.292 6.174 10.466 10.663 1.142-1.12z" fill="#caf4ff"/><path d="m17.336 45.084c-.127 0-.254-.048-.352-.145l-6.371-6.295c-.095-.094-.149-.223-.148-.357s.055-.263.151-.356l10.71-10.418c.195-.189.505-.189.7.003l6.372 6.296c.095.094.149.223.148.357s-.055.263-.151.356l-10.71 10.418c-.097.094-.223.141-.349.141zm-5.656-6.792 5.659 5.592 9.994-9.72-5.66-5.593z" fill="#63312d"/><path d="m46.743 45.208c-.129 0-.259-.05-.357-.15l-10.466-10.662c-.093-.095-.145-.222-.143-.355.001-.132.055-.259.15-.352l6.292-6.174c.095-.093.216-.137.355-.143.132.001.259.055.352.15l10.465 10.666c.093.095.145.222.143.355-.001.132-.055.259-.15.352l-6.292 6.172c-.096.094-.223.141-.349.141zm-9.759-11.156 9.765 9.949 5.578-5.472-9.765-9.952z" fill="#63312d"/><path d="m34.031 3.071h-4.061v24.339h4.062c6.721 0 12.17-5.449 12.17-12.17-.001-6.721-5.45-12.169-12.171-12.169z" fill="#db785a"/><path d="m34.031 27.91h-4.061c-.276 0-.5-.224-.5-.5v-24.339c0-.276.224-.5.5-.5h4.062c6.986 0 12.67 5.684 12.67 12.669-.001 6.987-5.684 12.67-12.671 12.67zm-3.561-1h3.562c6.435 0 11.67-5.235 11.67-11.67s-5.235-11.669-11.67-11.669h-3.562z" fill="#63312d"/><path d="m17.799 15.24c0 6.721 5.449 12.17 12.171 12.17 6.721 0 12.17-5.449 12.17-12.17s-5.449-12.169-12.17-12.169c-6.722 0-12.171 5.448-12.171 12.169z" fill="#f9a287"/><path d="m19.799 15.24c0-6.384 4.918-11.609 11.171-12.119-.331-.027-.663-.05-1-.05-6.722 0-12.171 5.448-12.171 12.169s5.449 12.17 12.171 12.17c.337 0 .669-.024 1-.05-6.253-.51-11.171-5.736-11.171-12.12z" fill="#ffc8bb"/><path d="m29.97 27.91c-6.987 0-12.671-5.684-12.671-12.67s5.684-12.669 12.671-12.669c6.986 0 12.67 5.684 12.67 12.669 0 6.987-5.684 12.67-12.67 12.67zm0-24.339c-6.436 0-11.671 5.235-11.671 11.669 0 6.435 5.235 11.67 11.671 11.67 6.435 0 11.67-5.235 11.67-11.67 0-6.434-5.235-11.669-11.67-11.669z" fill="#63312d"/><path d="m34.531 17.551c-.125-4.115-6.558-2.833-6.558-5.131 0-.764.662-1.282 1.924-1.282 1.282 0 2.048.684 2.131 1.676h2.357c-.108-1.982-1.41-3.29-3.453-3.592v-2.042h-1.863v2.032c-2.156.293-3.475 1.625-3.475 3.229 0 4.178 6.619 2.897 6.619 5.129 0 .789-.725 1.365-2.089 1.365-1.304 0-2.193-.762-2.276-1.695h-2.44c.089 1.781 1.524 3.221 3.661 3.59v2.471h1.863v-2.42c2.237-.248 3.599-1.598 3.599-3.33z" fill="#f9dd9d"/><path d="m30.933 23.801h-1.863c-.276 0-.5-.224-.5-.5v-2.064c-2.114-.515-3.565-2.07-3.661-3.971-.007-.137.043-.271.137-.37s.226-.155.362-.155h2.44c.259 0 .475.198.498.456.064.718.812 1.24 1.778 1.24.768 0 1.589-.228 1.589-.865 0-.52-.861-.79-2.174-1.141-1.876-.502-4.445-1.19-4.445-3.988 0-1.789 1.378-3.216 3.475-3.65v-1.613c0-.276.224-.5.5-.5h1.863c.276 0 .5.224.5.5v1.625c2.06.458 3.34 1.92 3.452 3.981.008.137-.042.271-.136.371-.095.1-.226.156-.363.156h-2.357c-.26 0-.477-.199-.498-.458-.065-.773-.66-1.217-1.633-1.217-.428 0-1.424.076-1.424.782 0 .564.822.832 2.176 1.207 1.814.502 4.298 1.189 4.381 3.909v.015c0 1.926-1.397 3.367-3.599 3.763v1.987c.002.276-.222.5-.498.5zm-1.364-1h.863v-1.92c0-.255.191-.469.445-.497 1.913-.212 3.15-1.321 3.154-2.826-.06-1.834-1.55-2.387-3.648-2.968-1.431-.396-2.91-.805-2.91-2.17 0-.862.637-1.782 2.424-1.782 1.305 0 2.259.644 2.548 1.676h1.377c-.273-1.42-1.328-2.355-2.963-2.598-.245-.036-.427-.247-.427-.495v-1.541h-.863v1.532c0 .25-.185.462-.433.496-1.848.251-3.042 1.324-3.042 2.733 0 1.884 1.535 2.441 3.704 3.022 1.433.384 2.915.78 2.915 2.107 0 .86-.678 1.865-2.589 1.865-1.307 0-2.363-.69-2.683-1.695h-1.461c.306 1.313 1.497 2.308 3.174 2.597.24.042.415.25.415.493z" fill="#63312d"/></svg>