<svg id="Layer_2" enable-background="new 0 0 64 64" height="512" viewBox="0 0 64 64" width="512" xmlns="http://www.w3.org/2000/svg"><path d="m8.639 39.313h5.375v21.389h-5.375z" fill="#efc36a"/><path d="m14.013 61.202h-5.374c-.276 0-.5-.224-.5-.5v-21.389c0-.276.224-.5.5-.5h5.375c.276 0 .5.224.5.5v21.389c-.001.277-.224.5-.501.5zm-4.874-1h4.375v-20.389h-4.375z" fill="#63312d"/><path d="m3.203 39.313h5.436v21.389h-5.436z" fill="#f9dd9d"/><path d="m5.203 41.313h3.436v-2h-5.436v21.389h2z" fill="#ffeecf"/><path d="m8.639 61.202h-5.436c-.276 0-.5-.224-.5-.5v-21.389c0-.276.224-.5.5-.5h5.436c.276 0 .5.224.5.5v21.389c0 .277-.224.5-.5.5zm-4.936-1h4.436v-20.389h-4.436z" fill="#63312d"/><path d="m24.234 34.563h5.374v26.139h-5.374z" fill="#db785a"/><path d="m29.608 61.202h-5.374c-.276 0-.5-.224-.5-.5v-26.139c0-.276.224-.5.5-.5h5.374c.276 0 .5.224.5.5v26.139c0 .277-.224.5-.5.5zm-4.874-1h4.374v-25.139h-4.374z" fill="#63312d"/><path d="m18.798 34.563h5.436v26.139h-5.436z" fill="#f9a287"/><path d="m20.798 36.563h3.436v-2h-5.436v26.139h2z" fill="#ffc8bb"/><path d="m24.234 61.202h-5.436c-.276 0-.5-.224-.5-.5v-26.139c0-.276.224-.5.5-.5h5.436c.276 0 .5.224.5.5v26.139c0 .277-.224.5-.5.5zm-4.936-1h4.436v-25.139h-4.436z" fill="#63312d"/><path d="m39.828 40.313h5.374v20.389h-5.374z" fill="#efc36a"/><path d="m45.202 61.202h-5.374c-.276 0-.5-.224-.5-.5v-20.389c0-.276.224-.5.5-.5h5.374c.276 0 .5.224.5.5v20.389c0 .277-.223.5-.5.5zm-4.874-1h4.374v-19.389h-4.374z" fill="#63312d"/><path d="m34.392 40.313h5.436v20.389h-5.436z" fill="#f9dd9d"/><path d="m36.392 42.313h3.436v-2h-5.436v20.389h2z" fill="#ffeecf"/><path d="m39.828 61.202h-5.436c-.276 0-.5-.224-.5-.5v-20.389c0-.276.224-.5.5-.5h5.436c.276 0 .5.224.5.5v20.389c0 .277-.224.5-.5.5zm-4.936-1h4.436v-19.389h-4.436z" fill="#63312d"/><path d="m55.423 29.786h5.374v30.916h-5.374z" fill="#52b8d9"/><path d="m60.797 61.202h-5.374c-.276 0-.5-.224-.5-.5v-30.916c0-.276.224-.5.5-.5h5.374c.276 0 .5.224.5.5v30.916c0 .277-.224.5-.5.5zm-4.874-1h4.374v-29.916h-4.374z" fill="#63312d"/><path d="m49.987 29.786h5.436v30.916h-5.436z" fill="#84dbff"/><path d="m51.987 31.786h3.436v-2h-5.436v30.916h2z" fill="#caf4ff"/><path d="m55.423 61.202h-5.436c-.276 0-.5-.224-.5-.5v-30.916c0-.276.224-.5.5-.5h5.436c.276 0 .5.224.5.5v30.916c0 .277-.224.5-.5.5zm-4.936-1h4.436v-29.916h-4.436z" fill="#63312d"/><path d="m39.768 27.887c-.545 0-1.068-.217-1.454-.602l-13.757-11.095-13.807 11.144-2.908-2.908 15.26-12.598c.803-.804 2.104-.804 2.908 0l13.757 11.094 13.6-16.918 2.908 2.907-15.053 18.373c-.386.386-.909.603-1.454.603z" fill="#f8f3f3"/><path d="m39.768 28.387c-.683 0-1.325-.266-1.808-.749l-13.403-10.805-13.493 10.89c-.199.16-.486.145-.667-.035l-2.908-2.908c-.1-.1-.153-.236-.146-.377s.073-.272.181-.362l15.26-12.598c.896-.902 2.614-.935 3.58.032l13.327 10.744 13.287-16.529c.089-.11.221-.178.363-.186.143-.016.28.046.38.146l2.908 2.907c.182.182.196.472.033.67l-15.054 18.374c-.516.52-1.158.786-1.84.786zm-15.211-12.697c.111 0 .222.037.314.11l13.756 11.094c.667.66 1.653.624 2.241.036l14.734-17.986-2.193-2.192-13.252 16.483c-.083.104-.204.169-.336.184-.134.013-.265-.025-.368-.107l-13.756-11.094c-.667-.66-1.652-.625-2.24-.036l-14.872 12.279 2.201 2.201 13.457-10.86c.091-.074.203-.112.314-.112z" fill="#63312d"/><path d="m21.265 16.614c-1.678-1.678-1.679-4.4 0-6.078 1.679-1.68 4.4-1.678 6.078 0 1.679 1.678 1.679 4.4 0 6.078-1.678 1.68-4.4 1.678-6.078 0z" fill="#f9a287"/><path d="m23.265 16.614c-1.678-1.678-1.679-4.4 0-6.078.582-.582 1.292-.949 2.039-1.127-1.405-.336-2.942.03-4.039 1.127-1.679 1.678-1.678 4.4 0 6.078 1.097 1.096 2.635 1.463 4.04 1.127-.747-.178-1.458-.545-2.04-1.127z" fill="#ffc8bb"/><path d="m24.305 18.371c-1.229 0-2.458-.468-3.394-1.403-.906-.906-1.405-2.11-1.405-3.393s.499-2.487 1.405-3.393 2.11-1.405 3.392-1.405h.001c1.281 0 2.486.499 3.392 1.405.906.905 1.406 2.11 1.406 3.393s-.499 2.487-1.405 3.393c-.935.935-2.163 1.403-3.392 1.403zm-2.687-2.11c1.481 1.48 3.891 1.48 5.372 0 .717-.717 1.112-1.671 1.112-2.686s-.396-1.969-1.113-2.686-1.671-1.112-2.686-1.112c0 0 0 0-.001 0-1.014 0-1.967.395-2.685 1.112-.717.717-1.112 1.671-1.112 2.686s.396 1.969 1.113 2.686z" fill="#63312d"/><path d="m6.69 28.527c-1.678-1.678-1.679-4.4 0-6.078 1.679-1.68 4.4-1.678 6.078 0 1.679 1.678 1.679 4.4.001 6.078-1.679 1.68-4.4 1.678-6.079 0z" fill="#f9dd9d"/><path d="m8.69 28.527c-1.678-1.678-1.679-4.4 0-6.078.582-.582 1.292-.949 2.039-1.127-1.405-.336-2.942.03-4.039 1.127-1.679 1.678-1.678 4.4 0 6.078 1.097 1.096 2.635 1.463 4.04 1.127-.747-.177-1.458-.545-2.04-1.127z" fill="#ffeecf"/><path d="m9.73 30.284c-1.229 0-2.458-.468-3.394-1.403-.906-.906-1.405-2.11-1.405-3.393s.499-2.487 1.405-3.393 2.11-1.405 3.392-1.405h.001c1.281 0 2.486.499 3.392 1.405.906.905 1.406 2.11 1.406 3.393s-.499 2.487-1.405 3.393c-.935.935-2.163 1.403-3.392 1.403zm-2.687-2.11c1.481 1.48 3.891 1.48 5.372 0 .717-.717 1.112-1.671 1.112-2.686s-.396-1.969-1.113-2.686-1.671-1.112-2.686-1.112c0 0 0 0-.001 0-1.014 0-1.967.395-2.685 1.112-.717.717-1.112 1.671-1.112 2.686s.396 1.969 1.113 2.686z" fill="#63312d"/><path d="m51.228 10.636c-1.678-1.678-1.679-4.4 0-6.078 1.679-1.68 4.4-1.678 6.078 0 1.679 1.678 1.679 4.4 0 6.078-1.678 1.679-4.399 1.678-6.078 0z" fill="#84dbff"/><path d="m53.228 10.636c-1.678-1.678-1.679-4.4 0-6.078.582-.582 1.292-.949 2.039-1.127-1.405-.336-2.942.03-4.039 1.127-1.679 1.678-1.678 4.4 0 6.078 1.097 1.096 2.635 1.463 4.04 1.127-.747-.178-1.457-.545-2.04-1.127z" fill="#caf4ff"/><path d="m54.268 12.393c-1.229 0-2.458-.468-3.394-1.403-.906-.906-1.405-2.11-1.405-3.393s.499-2.487 1.405-3.393 2.11-1.405 3.392-1.405h.001c1.281 0 2.486.499 3.392 1.405.906.905 1.406 2.11 1.406 3.393s-.499 2.487-1.405 3.393c-.935.935-2.163 1.403-3.392 1.403zm-2.686-2.111c1.481 1.48 3.891 1.48 5.372 0 .717-.717 1.112-1.671 1.112-2.686s-.396-1.969-1.113-2.686-1.671-1.112-2.686-1.112c0 0 0 0-.001 0-1.014 0-1.967.395-2.685 1.112-.717.717-1.112 1.671-1.112 2.686s.395 1.969 1.113 2.686z" fill="#63312d"/><path d="m36.653 28.527c-1.678-1.678-1.679-4.4 0-6.078 1.679-1.68 4.4-1.678 6.078 0 1.679 1.678 1.679 4.4 0 6.078-1.678 1.68-4.399 1.678-6.078 0z" fill="#f9dd9d"/><path d="m38.653 28.527c-1.678-1.678-1.679-4.4 0-6.078.582-.582 1.292-.949 2.039-1.127-1.405-.336-2.942.03-4.039 1.127-1.679 1.678-1.678 4.4 0 6.078 1.097 1.096 2.635 1.463 4.04 1.127-.746-.177-1.457-.545-2.04-1.127z" fill="#ffeecf"/><path d="m39.693 30.284c-1.229 0-2.458-.468-3.394-1.403-.906-.906-1.405-2.11-1.405-3.393s.499-2.487 1.405-3.393 2.11-1.405 3.392-1.405h.001c1.281 0 2.486.499 3.392 1.405.906.905 1.406 2.11 1.406 3.393s-.499 2.487-1.405 3.393c-.935.935-2.163 1.403-3.392 1.403zm-2.686-2.11c1.481 1.48 3.891 1.48 5.372 0 .717-.717 1.112-1.671 1.112-2.686s-.396-1.969-1.113-2.686-1.671-1.112-2.686-1.112c0 0 0 0-.001 0-1.014 0-1.967.395-2.685 1.112-.717.717-1.112 1.671-1.112 2.686s.396 1.969 1.113 2.686z" fill="#63312d"/></svg>