<svg id="Layer_2" enable-background="new 0 0 64 64" height="512" viewBox="0 0 64 64" width="512" xmlns="http://www.w3.org/2000/svg"><path d="m60.844 45.558c0 1.1-.9 2-2 2h-47.688c-1.1 0-2-.9-2-2v-32.917c0-1.1.9-2 2-2h47.688c1.1 0 2 .9 2 2z" fill="#db785a"/><path d="m58.844 48.058h-47.688c-1.378 0-2.5-1.122-2.5-2.5v-32.917c0-1.378 1.122-2.5 2.5-2.5h47.688c1.378 0 2.5 1.122 2.5 2.5v32.917c0 1.379-1.122 2.5-2.5 2.5zm-47.688-36.917c-.827 0-1.5.673-1.5 1.5v32.917c0 .827.673 1.5 1.5 1.5h47.688c.827 0 1.5-.673 1.5-1.5v-32.917c0-.827-.673-1.5-1.5-1.5z" fill="#63312d"/><path d="m54.844 45.558c0 1.1-.9 2-2 2h-47.688c-1.1 0-2-.9-2-2v-32.917c0-1.1.9-2 2-2h47.688c1.1 0 2 .9 2 2z" fill="#f9a287"/><path d="m7.156 12.641h47.688c0-1.1-.9-2-2-2h-47.688c-1.1 0-2 .9-2 2v32.917c0 1.1.9 2 2 2v-32.917c0-1.099.9-2 2-2z" fill="#ffc8bb"/><path d="m30.156 47.558h9.688v8.125h-9.688z" fill="#efc36a"/><path d="m25.656 55.683h18.688v5.155h-18.688z" fill="#db785a"/><path d="m39.844 56.183h-9.688c-.276 0-.5-.224-.5-.5v-8.125c0-.276.224-.5.5-.5h9.688c.276 0 .5.224.5.5v8.125c0 .276-.224.5-.5.5zm-9.188-1h8.688v-7.125h-8.688z" fill="#63312d"/><path d="m44.344 61.338h-18.688c-.276 0-.5-.224-.5-.5v-5.155c0-.276.224-.5.5-.5h18.688c.276 0 .5.224.5.5v5.155c0 .277-.224.5-.5.5zm-18.188-1h17.688v-4.155h-17.688z" fill="#63312d"/><path d="m52.844 48.058h-47.688c-1.378 0-2.5-1.122-2.5-2.5v-32.917c0-1.378 1.122-2.5 2.5-2.5h47.688c1.378 0 2.5 1.122 2.5 2.5v32.917c0 1.379-1.122 2.5-2.5 2.5zm-47.688-36.917c-.827 0-1.5.673-1.5 1.5v32.917c0 .827.673 1.5 1.5 1.5h47.688c.827 0 1.5-.673 1.5-1.5v-32.917c0-.827-.673-1.5-1.5-1.5z" fill="#63312d"/><path d="m51.927 42.933c0 1.1-.9 2-2 2h-41.854c-1.1 0-2-.9-2-2v-27.333c0-1.1.9-2 2-2h41.854c1.1 0 2 .9 2 2z" fill="#82d9ff"/><path d="m10.073 15.6h41.854c0-1.1-.9-2-2-2h-41.854c-1.1 0-2 .9-2 2v27.333c0 1.1.9 2 2 2v-27.333c0-1.1.9-2 2-2z" fill="#caf4ff"/><path d="m49.927 45.433h-41.854c-1.378 0-2.5-1.122-2.5-2.5v-27.333c0-1.378 1.122-2.5 2.5-2.5h41.854c1.378 0 2.5 1.122 2.5 2.5v27.333c0 1.379-1.121 2.5-2.5 2.5zm-41.854-31.333c-.827 0-1.5.673-1.5 1.5v27.333c0 .827.673 1.5 1.5 1.5h41.854c.827 0 1.5-.673 1.5-1.5v-27.333c0-.827-.673-1.5-1.5-1.5z" fill="#63312d"/><path d="m24.156 47.558h9.688v8.125h-9.688z" fill="#f9dd9d"/><path d="m19.656 55.683h18.688v5.155h-18.688z" fill="#f9a287"/><path d="m21.656 57.683h16.688v-2h-18.688v5.155h2z" fill="#ffc8bb"/><path d="m33.844 56.183h-9.688c-.276 0-.5-.224-.5-.5v-8.125c0-.276.224-.5.5-.5h9.688c.276 0 .5.224.5.5v8.125c0 .276-.224.5-.5.5zm-9.188-1h8.688v-7.125h-8.688z" fill="#63312d"/><path d="m38.344 61.338h-18.688c-.276 0-.5-.224-.5-.5v-5.155c0-.276.224-.5.5-.5h18.688c.276 0 .5.224.5.5v5.155c0 .277-.224.5-.5.5zm-18.188-1h17.688v-4.155h-17.688z" fill="#63312d"/><path d="m10.069 40.517h2.667v1h-2.667z" fill="#63312d"/><path d="m10.069 37.392h2.667v1h-2.667z" fill="#63312d"/><path d="m10.069 34.267h2.667v1h-2.667z" fill="#63312d"/><path d="m10.069 31.142h2.667v1h-2.667z" fill="#63312d"/><path d="m10.069 28.017h2.667v1h-2.667z" fill="#63312d"/><path d="m10.069 24.892h2.667v1h-2.667z" fill="#63312d"/><path d="m10.069 21.767h2.667v1h-2.667z" fill="#63312d"/><path d="m42.569 22.267h5v18.75h-5z" fill="#f9dd9d"/><path d="m33.844 25.392h5v15.625h-5z" fill="#f9dd9d"/><path d="m25.118 28.517h5v12.5h-5z" fill="#f9dd9d"/><path d="m16.393 31.642h5v9.375h-5z" fill="#f9dd9d"/><g fill="#63312d"><path d="m47.569 41.517h-5c-.276 0-.5-.224-.5-.5v-18.75c0-.276.224-.5.5-.5h5c.276 0 .5.224.5.5v18.75c0 .276-.223.5-.5.5zm-4.5-1h4v-17.75h-4z"/><path d="m38.844 41.517h-5c-.276 0-.5-.224-.5-.5v-15.625c0-.276.224-.5.5-.5h5c.276 0 .5.224.5.5v15.625c0 .276-.224.5-.5.5zm-4.5-1h4v-14.625h-4z"/><path d="m30.118 41.517h-5c-.276 0-.5-.224-.5-.5v-12.5c0-.276.224-.5.5-.5h5c.276 0 .5.224.5.5v12.5c0 .276-.223.5-.5.5zm-4.5-1h4v-11.5h-4z"/><path d="m21.393 41.517h-5c-.276 0-.5-.224-.5-.5v-9.375c0-.276.224-.5.5-.5h5c.276 0 .5.224.5.5v9.375c0 .276-.224.5-.5.5zm-4.5-1h4v-8.375h-4z"/><path d="m10.069 40.517h37.5v1h-37.5z"/><path d="m42.569 37.392h5v1h-5z"/><path d="m42.569 34.267h5v1h-5z"/><path d="m42.569 31.142h5v1h-5z"/><path d="m42.569 28.017h5v1h-5z"/><path d="m33.844 37.392h5v1h-5z"/><path d="m33.844 34.267h5v1h-5z"/><path d="m33.844 31.142h5v1h-5z"/><path d="m33.844 28.017h5v1h-5z"/><path d="m25.118 37.392h5v1h-5z"/><path d="m25.118 34.267h5v1h-5z"/><path d="m25.118 31.142h5v1h-5z"/><path d="m16.393 37.392h5v1h-5z"/><path d="m16.393 34.267h5v1h-5z"/><path d="m42.569 24.892h5v1h-5z"/></g><path d="m50.348 3.162-5.3 1.71 1.812 1.336-11.491 14.763-4.352-2.505-4.361 5.599-5.033-3.154-4.283 6.227 1.648 1.133 3.196-4.647 4.94 3.094 4.402-5.651 4.335 2.495 12.61-16.165 1.807 1.333z" fill="#f8f3f3"/><path d="m18.987 28.771c-.098 0-.196-.028-.283-.088l-1.647-1.133c-.109-.075-.184-.191-.208-.321s.004-.265.08-.374l4.282-6.228c.151-.221.451-.282.678-.141l4.65 2.915 4.083-5.242c.152-.196.429-.25.644-.126l3.976 2.288 10.908-14.015-1.399-1.032c-.151-.111-.227-.298-.197-.483s.162-.338.34-.396l5.3-1.71c.151-.05.321-.022.45.074s.205.248.203.409l-.069 5.568c-.002.188-.109.358-.277.441-.168.084-.368.065-.52-.045l-1.416-1.044-12.31 15.782c-.153.196-.428.251-.644.125l-3.958-2.278-4.136 5.308c-.158.203-.441.253-.66.117l-4.533-2.84-2.924 4.252c-.097.141-.254.217-.413.217zm-.951-1.762.823.566 2.913-4.235c.152-.221.451-.283.678-.141l4.557 2.855 4.125-5.295c.153-.197.428-.251.644-.126l3.958 2.278 12.343-15.822c.167-.212.473-.255.691-.095l1.022.754.048-3.898-3.709 1.197 1.028.758c.108.08.18.201.198.334.019.134-.018.269-.101.375l-11.49 14.764c-.152.197-.429.251-.644.126l-3.976-2.288-4.094 5.255c-.157.203-.44.253-.66.117l-4.627-2.9z" fill="#63312d"/></svg>