<svg id="Layer_2" enable-background="new 0 0 64 64" height="512" viewBox="0 0 64 64" width="512" xmlns="http://www.w3.org/2000/svg"><path d="m47.645 41.391h-21.81l-16.669-36.571h21.81z" fill="#52b8d9"/><path d="m47.645 41.891h-21.81c-.196 0-.374-.114-.455-.292l-16.669-36.572c-.07-.155-.058-.335.035-.478.092-.143.25-.229.42-.229h21.81c.196 0 .374.114.455.292l16.669 36.572c.07.155.058.335-.035.478-.092.143-.251.229-.42.229zm-21.488-1h20.71l-16.213-35.571h-20.711z" fill="#63312d"/><path d="m22.327 41.391h21.809l16.669-36.571h-21.81z" fill="#52b8d9"/><path d="m44.136 41.891h-21.81c-.17 0-.329-.086-.42-.229-.092-.143-.105-.323-.035-.478l16.669-36.572c.082-.178.259-.292.455-.292h21.81c.17 0 .329.086.42.229.092.143.105.323.035.478l-16.669 36.572c-.081.178-.259.292-.455.292zm-21.032-1h20.71l16.213-35.571h-20.71z" fill="#63312d"/><path d="m16.355 41.391h21.81l16.669-36.571h-21.81z" fill="#84dbff"/><path d="m34.358 6.82h19.564l.912-2h-21.81l-16.669 36.571h2.246z" fill="#caf4ff"/><path d="m38.165 41.891h-21.81c-.17 0-.329-.086-.42-.229-.092-.143-.105-.323-.035-.478l16.669-36.572c.082-.178.259-.292.455-.292h21.81c.17 0 .329.086.42.229.092.143.105.323.035.478l-16.669 36.572c-.081.178-.259.292-.455.292zm-21.032-1h20.71l16.214-35.571h-20.71z" fill="#63312d"/><path d="m34.986 22.456h-5.971v1.013c-7.205 2.479-12.392 9.302-12.392 17.349 0 8.048 5.186 14.87 12.392 17.35v1.013h5.971c10.141 0 18.362-8.221 18.362-18.362 0-10.142-8.221-18.363-18.362-18.363z" fill="#efc36a"/><path d="m34.986 59.68h-5.971c-.276 0-.5-.224-.5-.5v-.66c-7.427-2.713-12.392-9.782-12.392-17.703 0-7.92 4.964-14.989 12.392-17.702v-.66c0-.276.224-.5.5-.5h5.971c10.4 0 18.862 8.461 18.862 18.861 0 10.403-8.462 18.864-18.862 18.864zm-5.471-1h5.471c9.849 0 17.862-8.013 17.862-17.862s-8.013-17.861-17.862-17.861h-5.471v.513c0 .213-.135.403-.337.473-7.21 2.481-12.054 9.263-12.054 16.876s4.844 14.396 12.054 16.877c.202.069.337.259.337.473z" fill="#63312d"/><path d="m41.673 41.391h-21.809l-16.669-36.571h21.81z" fill="#84dbff"/><path d="m6.32 6.82h19.597l-.912-2h-21.81l16.669 36.571h2.213z" fill="#caf4ff"/><path d="m41.673 41.891h-21.81c-.196 0-.374-.114-.455-.292l-16.668-36.572c-.07-.154-.057-.335.035-.478s.25-.229.42-.229h21.81c.196 0 .374.114.455.292l16.668 36.571c.07.155.058.335-.035.478-.091.144-.25.23-.42.23zm-21.487-1h20.71l-16.213-35.571h-20.71z" fill="#63312d"/><path d="m47.376 40.818c0 10.142-8.22 18.362-18.361 18.362s-18.363-8.221-18.363-18.362 8.222-18.361 18.363-18.361c10.141-.001 18.361 8.22 18.361 18.361z" fill="#f9dd9d"/><path d="m42.986 40.818c0 7.717-6.254 13.972-13.971 13.972s-13.972-6.255-13.972-13.972c0-7.716 6.256-13.971 13.972-13.971s13.971 6.255 13.971 13.971z" fill="#f8f3f3"/><path d="m29.015 55.29c-7.98 0-14.472-6.492-14.472-14.472 0-7.979 6.492-14.471 14.472-14.471 7.979 0 14.471 6.492 14.471 14.471s-6.492 14.472-14.471 14.472zm0-27.943c-7.429 0-13.472 6.043-13.472 13.471s6.043 13.472 13.472 13.472c7.428 0 13.471-6.043 13.471-13.472 0-7.428-6.043-13.471-13.471-13.471z" fill="#63312d"/><path d="m12.652 40.818c0-9.803 7.69-17.789 17.363-18.311-.333-.018-.663-.05-1-.05-10.141 0-18.363 8.221-18.363 18.361 0 10.142 8.222 18.362 18.363 18.362.337 0 .667-.032 1-.05-9.673-.523-17.363-8.508-17.363-18.312z" fill="#ffeecf"/><path d="m29.015 59.68c-10.401 0-18.863-8.461-18.863-18.862 0-10.4 8.462-18.861 18.863-18.861 10.4 0 18.861 8.461 18.861 18.861 0 10.401-8.46 18.862-18.861 18.862zm0-36.723c-9.85 0-17.863 8.013-17.863 17.861 0 9.849 8.013 17.862 17.863 17.862 9.849 0 17.861-8.013 17.861-17.862s-8.012-17.861-17.861-17.861z" fill="#63312d"/><path d="m29.015 31.688 2.783 5.641 6.225.904-4.504 4.39 1.063 6.199-5.567-2.926-5.568 2.926 1.064-6.199-4.505-4.39 6.225-.904z" fill="#f9a287"/><path d="m24.511 42.623-1.064 6.199 2.199-1.155 1-5.709-4.179-4.083-2.461.358z" fill="#ffc8bb"/><path d="m30.015 33.714-1-2.026-3.098 6.187 2.199-.333z" fill="#ffc8bb"/><path d="m34.582 49.322c-.08 0-.16-.019-.233-.058l-5.334-2.804-5.335 2.804c-.167.09-.373.075-.526-.038-.154-.112-.231-.301-.199-.489l1.019-5.94-4.316-4.207c-.136-.133-.185-.332-.126-.512.059-.181.215-.313.404-.34l5.964-.867 2.667-5.405c.168-.342.729-.342.896 0l2.667 5.405 5.964.867c.188.027.345.159.404.34s.01.379-.126.512l-4.316 4.207 1.019 5.94c.032.188-.045.377-.199.489-.088.064-.191.096-.294.096zm-5.567-3.926c.08 0 .16.019.233.058l4.67 2.455-.892-5.201c-.028-.162.026-.328.144-.442l3.779-3.683-5.222-.759c-.163-.023-.304-.126-.376-.273l-2.335-4.732-2.335 4.732c-.073.147-.213.25-.376.273l-5.222.759 3.779 3.683c.118.115.171.28.144.442l-.892 5.201 4.671-2.455c.07-.039.15-.058.23-.058z" fill="#63312d"/></svg>