<svg id="Layer_2" enable-background="new 0 0 64 64" height="512" viewBox="0 0 64 64" width="512" xmlns="http://www.w3.org/2000/svg"><path d="m45.314 49.754c-.4-.637-1.047-.972-1.702-.96v-.006h-6.033v2.99l-4.347 1.46h-2.786c1.307 0 2.366-1.174 2.366-2.625 0-1.448-1.06-2.626-2.366-2.626h-4.332s-1.832-3.084-5.493-3.084h-5.948v14.242h19.073c.55 0 1.381-.238 1.848-.528h.002l9.299-5.784c.856-.739 1.04-2.093.419-3.079z" fill="#efc36a"/><path d="m33.746 59.645h-19.073c-.276 0-.5-.224-.5-.5v-14.242c0-.276.224-.5.5-.5h5.948c3.318 0 5.219 2.31 5.762 3.084h4.063c1.581 0 2.866 1.402 2.866 3.126 0 .82-.291 1.567-.767 2.125h.605l3.928-1.32v-2.63c0-.276.224-.5.5-.5h6.033c.026 0 .052.002.078.006.823.015 1.584.457 2.048 1.194.75 1.192.523 2.828-.517 3.724l-9.361 5.83c-.008.004-.016.009-.024.014-.546.33-1.458.589-2.089.589zm-18.573-1h18.573c.456 0 1.196-.211 1.584-.453l9.3-5.785c.612-.535.754-1.604.261-2.387-.292-.464-.763-.729-1.27-.727-.028 0-.057-.001-.085-.006h-5.457v2.49c0 .215-.137.406-.341.474l-4.347 1.46c-.051.017-.105.026-.159.026h-2.786c-.276 0-.5-.224-.5-.5s.224-.5.5-.5c1.029 0 1.866-.953 1.866-2.125s-.837-2.126-1.866-2.126h-4.332c-.176 0-.339-.093-.429-.244-.07-.116-1.743-2.84-5.064-2.84h-5.448z" fill="#63312d"/><path d="m39.314 49.754c-.621-.986-1.83-1.26-2.751-.622l-9.331 4.106h-2.786c1.308 0 2.367-1.174 2.367-2.625 0-1.448-1.06-2.626-2.367-2.626h-4.332s-1.832-3.084-5.493-3.084-5.418 2.924-5.418 2.924v11.317h18.543c.55 0 1.382-.238 1.85-.528l9.299-5.784c.856-.738 1.04-2.092.419-3.078z" fill="#f9dd9d"/><path d="m15.607 44.988c-.314-.05-.639-.085-.986-.085-3.661 0-5.418 2.924-5.418 2.924v11.317h2v-11.317s1.436-2.374 4.404-2.839z" fill="#ffeecf"/><path d="m27.746 59.645h-18.543c-.276 0-.5-.224-.5-.5v-11.318c0-.091.025-.18.071-.257.078-.129 1.947-3.167 5.847-3.167 3.318 0 5.219 2.31 5.762 3.084h4.063c1.581 0 2.867 1.402 2.867 3.126 0 .82-.291 1.567-.767 2.125h.581l9.235-4.063c.462-.332 1.114-.468 1.75-.339.666.136 1.243.545 1.625 1.152.75 1.192.523 2.828-.517 3.724l-9.361 5.83c-.545.337-1.473.603-2.113.603zm-18.043-1h18.043c.456 0 1.197-.212 1.586-.453l9.298-5.784c.612-.535.754-1.604.261-2.387-.235-.374-.583-.625-.979-.705-.363-.075-.744.006-1.064.228l-9.415 4.152c-.063.028-.132.042-.201.042h-2.786c-.276 0-.5-.224-.5-.5s.224-.5.5-.5c1.03 0 1.867-.953 1.867-2.125s-.837-2.126-1.867-2.126h-4.332c-.176 0-.339-.093-.429-.244-.07-.116-1.743-2.84-5.064-2.84-2.972 0-4.568 2.061-4.918 2.573z" fill="#63312d"/><path d="m20.426 52.738h4.021v1h-4.021z" fill="#63312d"/><path d="m3.202 44.903h6.001v15.93h-6.001z" fill="#82d9ff" transform="matrix(-1 0 0 -1 12.405 105.736)"/><path d="m5.202 46.903h4.001v-2h-6.001v15.93h2z" fill="#caf4ff"/><path d="m9.203 61.333h-6.001c-.276 0-.5-.224-.5-.5v-15.93c0-.276.224-.5.5-.5h6.001c.276 0 .5.224.5.5v15.93c0 .276-.224.5-.5.5zm-5.501-1h5.001v-14.93h-5.001z" fill="#63312d"/><path d="m36.235 4.856c-.55 0-1.382.238-1.849.528l-9.3 5.784c-.331.285-.559.663-.682 1.076h-4.064v2.965h5.937v-.001c.391.014.787-.094 1.142-.34l9.331-4.106h2.787c-1.308 0-2.368 1.174-2.368 2.625 0 1.448 1.06 2.626 2.368 2.626h3.762v3.084h6.063c3.662 0 5.419-2.924 5.419-2.924v-11.317z" fill="#efc36a"/><path d="m49.36 19.597h-6.063c-.276 0-.5-.224-.5-.5v-2.584h-3.262c-1.582 0-2.868-1.402-2.868-3.126 0-.82.292-1.567.767-2.125h-.581l-9.235 4.063c-.347.252-.848.396-1.36.382l-5.919.001c-.132 0-.26-.053-.354-.146s-.146-.221-.146-.354v-2.965c0-.276.224-.5.5-.5h3.718c.166-.372.404-.698.703-.955l9.362-5.83c.544-.338 1.472-.604 2.113-.604h18.544c.276 0 .5.224.5.5v11.317c0 .091-.025.18-.071.257-.078.132-1.947 3.169-5.848 3.169zm-5.562-1h5.563c2.952 0 4.571-2.073 4.919-2.574v-10.668h-18.045c-.457 0-1.197.211-1.584.453l-9.3 5.785c-.183.165-.366.456-.467.794-.063.212-.258.357-.479.357h-3.565v1.965h5.437c.316.009.605-.077.857-.252l9.415-4.152c.063-.028.132-.042.201-.042h2.787c.276 0 .5.224.5.5s-.224.5-.5.5c-1.03 0-1.868.953-1.868 2.125s.838 2.126 1.868 2.126h3.762c.276 0 .5.224.5.5v2.583z" fill="#63312d"/><path d="m18.682 14.246c.621.986 1.83 1.26 2.751.622l9.331-4.106h2.786c-1.308 0-2.367 1.174-2.367 2.625 0 1.448 1.06 2.626 2.367 2.626h4.332s1.832 3.084 5.493 3.084 5.418-2.924 5.418-2.924v-11.317h-18.543c-.55 0-1.382.238-1.85.528l-9.299 5.784c-.856.738-1.041 2.092-.419 3.078z" fill="#f9dd9d"/><path d="m21.312 14.877c-.621-.986-.436-2.34.42-3.078l9.3-5.784c.306-.19 1.307-.688 3.078-1.16h-3.86c-.55 0-1.382.238-1.85.528l-9.299 5.784c-.856.738-1.041 2.092-.42 3.078.602.956 1.753 1.234 2.662.671-.009-.013-.021-.024-.031-.039z" fill="#ffeecf"/><path d="m43.375 19.597c-3.318 0-5.219-2.31-5.762-3.084h-4.063c-1.581 0-2.867-1.402-2.867-3.126 0-.82.291-1.567.767-2.125h-.581l-9.235 4.063c-.462.332-1.113.469-1.75.339-.666-.136-1.243-.545-1.625-1.152-.75-1.192-.523-2.828.517-3.724l9.361-5.83c.545-.338 1.474-.604 2.114-.604h18.543c.276 0 .5.224.5.5v11.317c0 .091-.025.18-.071.257-.079.132-1.949 3.169-5.848 3.169zm-9.825-8.335c-1.03 0-1.867.953-1.867 2.125s.837 2.126 1.867 2.126h4.332c.176 0 .339.093.429.244.07.116 1.743 2.84 5.064 2.84 2.972 0 4.568-2.061 4.918-2.573v-10.669h-18.043c-.456 0-1.197.212-1.586.453l-9.298 5.784c-.612.535-.754 1.604-.261 2.387.235.374.583.625.979.705.364.077.744-.005 1.064-.228l9.415-4.152c.063-.028.132-.042.201-.042h2.786c.276 0 .5.224.5.5s-.224.5-.5.5z" fill="#63312d"/><path d="m33.554 10.262h4.021v1h-4.021z" fill="#63312d"/><path d="m54.797 3.167h6.001v15.93h-6.001z" fill="#52b8d9"/><path d="m60.798 19.597h-6.001c-.276 0-.5-.224-.5-.5v-15.93c0-.276.224-.5.5-.5h6.001c.276 0 .5.224.5.5v15.93c0 .277-.224.5-.5.5zm-5.501-1h5.001v-14.93h-5.001z" fill="#63312d"/><path d="m48.797 3.167h6.001v15.93h-6.001z" fill="#82d9ff"/><path d="m50.797 5.167h4.001v-2h-6.001v15.93h2z" fill="#caf4ff"/><path d="m54.798 19.597h-6.001c-.276 0-.5-.224-.5-.5v-15.93c0-.276.224-.5.5-.5h6.001c.276 0 .5.224.5.5v15.93c0 .277-.224.5-.5.5zm-5.501-1h5.001v-14.93h-5.001z" fill="#63312d"/><path d="m34.01 19.797h-4.062v24.339h4.062c6.721 0 12.17-5.449 12.17-12.17s-5.45-12.169-12.17-12.169z" fill="#db785a"/><path d="m34.01 44.636h-4.062c-.276 0-.5-.224-.5-.5v-24.339c0-.276.224-.5.5-.5h4.062c6.986 0 12.67 5.683 12.67 12.669 0 6.987-5.684 12.67-12.67 12.67zm-3.562-1h3.562c6.435 0 11.67-5.235 11.67-11.67 0-6.434-5.235-11.669-11.67-11.669h-3.562z" fill="#63312d"/><path d="m17.777 31.966c0 6.721 5.449 12.17 12.171 12.17 6.721 0 12.17-5.449 12.17-12.17s-5.449-12.169-12.17-12.169-12.171 5.449-12.171 12.169z" fill="#f9a287"/><path d="m19.777 31.966c0-6.384 4.919-11.608 11.171-12.119-.33-.026-.662-.05-1-.05-6.722 0-12.171 5.448-12.171 12.169s5.449 12.17 12.171 12.17c.338 0 .67-.023 1-.05-6.252-.51-11.171-5.736-11.171-12.12z" fill="#ffc8bb"/><path d="m29.948 44.636c-6.987 0-12.671-5.684-12.671-12.67s5.684-12.669 12.671-12.669c6.986 0 12.67 5.683 12.67 12.669 0 6.987-5.683 12.67-12.67 12.67zm0-24.339c-6.436 0-11.671 5.235-11.671 11.669 0 6.435 5.235 11.67 11.671 11.67 6.435 0 11.67-5.235 11.67-11.67 0-6.434-5.235-11.669-11.67-11.669z" fill="#63312d"/><path d="m34.51 34.277c-.125-4.115-6.558-2.833-6.558-5.131 0-.764.662-1.282 1.924-1.282 1.282 0 2.048.684 2.131 1.676h2.357c-.108-1.983-1.41-3.289-3.453-3.592v-2.041h-1.863v2.032c-2.156.293-3.475 1.625-3.475 3.229 0 4.178 6.619 2.896 6.619 5.129 0 .789-.725 1.365-2.089 1.365-1.304 0-2.193-.762-2.276-1.695h-2.44c.089 1.781 1.524 3.221 3.661 3.59v2.471h1.863v-2.42c2.236-.249 3.599-1.599 3.599-3.331z" fill="#f9dd9d"/><path d="m30.911 40.527h-1.863c-.276 0-.5-.224-.5-.5v-2.064c-2.114-.515-3.565-2.07-3.661-3.971-.007-.137.043-.271.137-.37s.226-.155.362-.155h2.44c.259 0 .475.198.498.456.064.718.812 1.24 1.778 1.24.768 0 1.589-.227 1.589-.865 0-.52-.861-.79-2.174-1.141-1.876-.502-4.445-1.19-4.445-3.988 0-1.79 1.378-3.216 3.475-3.65v-1.611c0-.276.224-.5.5-.5h1.863c.276 0 .5.224.5.5v1.625c2.06.458 3.34 1.92 3.452 3.98.008.137-.042.271-.136.371-.095.1-.226.156-.363.156h-2.357c-.26 0-.477-.199-.498-.458-.065-.773-.66-1.217-1.633-1.217-.428 0-1.424.076-1.424.782 0 .564.822.832 2.176 1.207 1.814.502 4.298 1.189 4.381 3.909v.015c0 1.926-1.397 3.367-3.599 3.763v1.987c.002.275-.221.499-.498.499zm-1.363-1h.863v-1.92c0-.255.191-.469.445-.497 1.913-.212 3.15-1.321 3.154-2.826-.06-1.834-1.55-2.387-3.648-2.968-1.431-.396-2.91-.805-2.91-2.17 0-.862.637-1.782 2.424-1.782 1.305 0 2.259.644 2.548 1.676h1.377c-.273-1.42-1.328-2.355-2.963-2.597-.245-.036-.427-.247-.427-.495v-1.541h-.863v1.532c0 .25-.185.462-.433.496-1.848.251-3.042 1.324-3.042 2.733 0 1.884 1.535 2.441 3.704 3.022 1.433.384 2.915.78 2.915 2.107 0 .86-.678 1.865-2.589 1.865-1.307 0-2.363-.69-2.683-1.695h-1.461c.306 1.313 1.497 2.308 3.174 2.597.24.042.415.25.415.493z" fill="#63312d"/></svg>