<?xml version="1.0"?>
<svg xmlns="http://www.w3.org/2000/svg" id="Layer_3" enable-background="new 0 0 64 64" height="512px" viewBox="0 0 64 64" width="512px"><g><path d="m57.515 27c-.678-3.481-2.047-6.716-3.964-9.55l3.449-3.45-7-7-3.45 3.45c-2.834-1.918-6.069-3.286-9.55-3.965v-4.485h-10v4.485c-3.481.678-6.716 2.047-9.55 3.964l-3.45-3.449-7 7 3.45 3.45c-1.918 2.834-3.286 6.069-3.965 9.55h-4.485v10h4.485c.678 3.481 2.047 6.716 3.964 9.55l-3.449 3.45 7 7 3.45-3.45c2.834 1.917 6.069 3.286 9.55 3.964v4.486h10v-4.485c3.481-.678 6.716-2.047 9.55-3.964l3.45 3.449 7-7-3.45-3.45c1.917-2.834 3.286-6.069 3.964-9.55h4.486v-10zm-25.515 27c-12.15 0-22-9.85-22-22s9.85-22 22-22 22 9.85 22 22-9.85 22-22 22z" fill="#f4b2b0" data-original="#F4B2B0"/><path d="m28 44h8v4h-8z" fill="#f4b2b0" data-original="#F4B2B0"/><g fill="#b3404a"><path d="m62 26h-3.674c-.679-2.998-1.852-5.823-3.494-8.418l2.875-2.875c.391-.391.391-1.023 0-1.414l-7-7c-.391-.391-1.023-.391-1.414 0l-2.875 2.875c-2.595-1.643-5.42-2.815-8.418-3.494v-3.674c0-.552-.448-1-1-1h-10c-.552 0-1 .448-1 1v3.674c-2.998.679-5.823 1.852-8.418 3.494l-2.875-2.875c-.391-.391-1.023-.391-1.414 0l-7 7c-.391.391-.391 1.023 0 1.414l2.875 2.875c-1.643 2.594-2.815 5.419-3.494 8.418h-3.674c-.552 0-1 .448-1 1v10c0 .552.448 1 1 1h3.674c.679 2.998 1.852 5.823 3.494 8.418l-2.875 2.875c-.391.391-.391 1.023 0 1.414l7 7c.391.391 1.023.391 1.414 0l2.875-2.875c2.595 1.643 5.42 2.815 8.418 3.494v3.674c0 .552.448 1 1 1h10c.552 0 1-.448 1-1v-3.674c2.999-.679 5.824-1.851 8.418-3.494l2.875 2.875c.391.391 1.023.391 1.414 0l7-7c.391-.391.391-1.023 0-1.414l-2.875-2.875c1.643-2.595 2.815-5.42 3.494-8.418h3.674c.552 0 1-.448 1-1v-10c0-.552-.448-1-1-1zm-1 10h-3.485c-.479 0-.89.339-.981.809-.644 3.306-1.926 6.395-3.811 9.181-.269.397-.218.929.121 1.268l2.742 2.742-5.586 5.586-2.743-2.743c-.338-.338-.869-.39-1.268-.121-2.785 1.884-5.874 3.166-9.181 3.811-.469.092-.808.503-.808.982v3.485h-8v-3.485c0-.479-.339-.89-.809-.981-3.306-.644-6.395-1.926-9.181-3.811-.398-.268-.928-.217-1.268.121l-2.742 2.742-5.586-5.586 2.743-2.743c.339-.339.39-.871.121-1.268-1.885-2.786-3.167-5.875-3.811-9.181-.092-.469-.503-.808-.982-.808h-3.485v-8h3.485c.479 0 .89-.339.981-.809.645-3.307 1.927-6.396 3.811-9.181.269-.397.218-.929-.121-1.268l-2.742-2.742 5.586-5.586 2.743 2.743c.338.338.869.389 1.268.121 2.786-1.885 5.875-3.167 9.181-3.811.469-.092.808-.503.808-.982v-3.485h8v3.485c0 .479.339.89.809.981 3.306.644 6.395 1.926 9.181 3.811.399.269.929.217 1.268-.121l2.742-2.742 5.586 5.586-2.743 2.743c-.339.339-.39.871-.121 1.268 1.885 2.786 3.167 5.875 3.811 9.181.092.469.503.808.982.808h3.485z" data-original="#000000" class="active-path" data-old_color="#000000" style="fill:#DC3545"/><path d="m32 9c-12.682 0-23 10.318-23 23s10.318 23 23 23 23-10.318 23-23-10.318-23-23-23zm0 44c-11.58 0-21-9.42-21-21s9.42-21 21-21 21 9.42 21 21-9.42 21-21 21z" data-original="#000000" class="active-path" data-old_color="#000000" style="fill:#DC3545"/><path d="m32 23c-4.962 0-9 4.038-9 9v1.171c0 2.091.814 4.057 2.293 5.536 1.101 1.101 1.707 2.564 1.707 4.122v5.171c0 .552.448 1 1 1h8c.552 0 1-.448 1-1v-5.171c0-1.557.606-3.021 1.707-4.122 1.479-1.478 2.293-3.444 2.293-5.536v-1.171c0-4.962-4.038-9-9-9zm-3 24v-2h6v2zm10-13.829c0 1.557-.606 3.021-1.707 4.122-1.479 1.478-2.293 3.444-2.293 5.536v.171h-2v-10h2v-2h-6v2h2v10h-2v-.171c0-2.091-.814-4.057-2.293-5.536-1.101-1.101-1.707-2.564-1.707-4.122v-1.171c0-3.86 3.14-7 7-7s7 3.14 7 7z" data-original="#000000" class="active-path" data-old_color="#000000" style="fill:#DC3545"/><path d="m31 16h2v5h-2z" data-original="#000000" class="active-path" data-old_color="#000000" style="fill:#DC3545"/><path d="m39.379 21.5h4.243v2h-4.243z" transform="matrix(.707 -.707 .707 .707 -3.755 35.935)" data-original="#000000" class="active-path" data-old_color="#000000" style="fill:#DC3545"/><path d="m21.5 20.379h2v4.243h-2z" transform="matrix(.707 -.707 .707 .707 -9.32 22.5)" data-original="#000000" class="active-path" data-old_color="#000000" style="fill:#DC3545"/></g></g> </svg>
