<svg id="Layer_2" enable-background="new 0 0 64 64" height="512" viewBox="0 0 64 64" width="512" xmlns="http://www.w3.org/2000/svg"><path d="m56.979 45.553c0 1.361-1.112 2.474-2.472 2.474h-21.027c-1.359 0-2.472-1.113-2.472-2.474v-39.888c0-1.36 1.112-2.473 2.472-2.473h21.027c1.359 0 2.472 1.113 2.472 2.473z" fill="#efc36a"/><path d="m54.508 48.526h-21.028c-1.639 0-2.972-1.334-2.972-2.974v-39.887c0-1.639 1.333-2.973 2.972-2.973h21.027c1.639 0 2.972 1.334 2.972 2.973v39.888c0 1.639-1.333 2.973-2.971 2.973zm-21.028-44.835c-1.087 0-1.972.885-1.972 1.973v39.888c0 1.088.884 1.974 1.972 1.974h21.027c1.087 0 1.972-.885 1.972-1.974v-39.887c0-1.088-.885-1.973-1.972-1.973h-21.027z" fill="#63312d"/><path d="m51.058 45.553c0 1.361-1.112 2.474-2.472 2.474h-21.027c-1.36 0-2.473-1.113-2.473-2.474v-39.888c0-1.36 1.112-2.473 2.473-2.473h21.027c1.359 0 2.472 1.113 2.472 2.473z" fill="#f9dd9d"/><path d="m30.032 5.665h21.025c0-1.36-1.112-2.473-2.472-2.473h-21.026c-1.36 0-2.473 1.113-2.473 2.473v39.888c0 1.361 1.112 2.474 2.473 2.474v-39.889c0-1.359 1.114-2.473 2.473-2.473z" fill="#ffeecf"/><path d="m48.586 48.526h-21.027c-1.639 0-2.973-1.334-2.973-2.974v-39.887c0-1.639 1.333-2.973 2.973-2.973h21.027c1.639 0 2.972 1.334 2.972 2.973v39.888c0 1.639-1.333 2.973-2.972 2.973zm-21.027-44.835c-1.088 0-1.973.885-1.973 1.973v39.888c0 1.088.885 1.974 1.973 1.974h21.027c1.087 0 1.972-.885 1.972-1.974v-39.887c0-1.088-.885-1.973-1.972-1.973h-21.027z" fill="#63312d"/><path d="m25.086 8.269h25.971v32.129h-25.971z" fill="#f8f3f3"/><path d="m25.086 13.485h25.971v21.925h-25.971z" fill="#84dbff"/><path d="m25.086 13.485h2.473v21.925h-2.473z" fill="#caf4ff"/><g fill="#63312d"><path d="m51.058 35.91h-25.972c-.276 0-.5-.224-.5-.5v-21.925c0-.276.224-.5.5-.5h25.971c.276 0 .5.224.5.5v21.925c.001.276-.223.5-.499.5zm-25.472-1h24.971v-20.925h-24.971z"/><path d="m51.058 40.898h-25.972c-.276 0-.5-.224-.5-.5v-32.129c0-.276.224-.5.5-.5h25.971c.276 0 .5.224.5.5v32.129c.001.276-.223.5-.499.5zm-25.472-1h24.971v-31.129h-24.971z"/><path d="m27.26 10.398h3.537v1h-3.537z"/><path d="m27.26 37.445h1.219v1h-1.219z"/><path d="m29.904 37.445h1.219v1h-1.219z"/><path d="m32.387 37.445h1.218v1h-1.218z"/></g><path d="m18.985 25.832c0 3.36 2.725 6.085 6.085 6.085s6.085-2.725 6.085-6.085c0-3.361-2.725-6.085-6.085-6.085-3.361 0-6.085 2.724-6.085 6.085z" fill="#f9a287"/><path d="m25.07 32.417c-3.631 0-6.585-2.954-6.585-6.585s2.954-6.585 6.585-6.585 6.585 2.954 6.585 6.585-2.954 6.585-6.585 6.585zm0-12.17c-3.08 0-5.585 2.505-5.585 5.585s2.505 5.585 5.585 5.585 5.585-2.505 5.585-5.585-2.506-5.585-5.585-5.585z" fill="#63312d"/><path d="m27.351 26.987c-.062-2.058-3.279-1.417-3.279-2.565 0-.382.331-.642.962-.642.641 0 1.024.342 1.065.838h1.178c-.054-.991-.705-1.645-1.727-1.796v-1.021h-.93v1.016c-1.078.146-1.737.813-1.737 1.615 0 2.088 3.31 1.448 3.31 2.565 0 .394-.362.683-1.044.683-.651 0-1.096-.381-1.138-.848h-1.22c.044.891.762 1.61 1.83 1.795v1.235h.932v-1.21c1.117-.124 1.798-.798 1.798-1.665z" fill="#63312d"/><path d="m34.596 16.93c0 3.36 2.725 6.085 6.086 6.085 3.359 0 6.084-2.725 6.084-6.085 0-3.361-2.725-6.085-6.084-6.085-3.362 0-6.086 2.724-6.086 6.085z" fill="#f9a287"/><path d="m40.682 23.515c-3.632 0-6.586-2.954-6.586-6.585s2.954-6.585 6.586-6.585c3.631 0 6.584 2.954 6.584 6.585s-2.953 6.585-6.584 6.585zm0-12.17c-3.08 0-5.586 2.505-5.586 5.585s2.506 5.585 5.586 5.585c3.079 0 5.584-2.505 5.584-5.585s-2.505-5.585-5.584-5.585z" fill="#63312d"/><path d="m42.962 18.085c-.062-2.058-3.278-1.417-3.278-2.565 0-.382.33-.642.962-.642.641 0 1.024.342 1.065.838h1.178c-.053-.991-.704-1.644-1.727-1.796v-1.02h-.932v1.016c-1.077.146-1.736.813-1.736 1.615 0 2.088 3.309 1.448 3.309 2.564 0 .395-.361.683-1.044.683-.651 0-1.097-.381-1.138-.848h-1.221c.045.891.762 1.61 1.83 1.795v1.235h.932v-1.21c1.119-.124 1.8-.798 1.8-1.665z" fill="#63312d"/><path d="m44.933 31.694c0 3.36 2.725 6.085 6.085 6.085s6.085-2.725 6.085-6.085c0-3.361-2.725-6.085-6.085-6.085-3.361 0-6.085 2.724-6.085 6.085z" fill="#f9a287"/><path d="m51.018 38.279c-3.631 0-6.585-2.954-6.585-6.585s2.954-6.585 6.585-6.585 6.585 2.954 6.585 6.585-2.955 6.585-6.585 6.585zm0-12.17c-3.079 0-5.585 2.505-5.585 5.585s2.506 5.585 5.585 5.585 5.585-2.505 5.585-5.585-2.506-5.585-5.585-5.585z" fill="#63312d"/><path d="m53.299 32.849c-.063-2.058-3.279-1.417-3.279-2.565 0-.382.331-.642.963-.642.641 0 1.023.342 1.064.838h1.179c-.054-.991-.704-1.645-1.727-1.796v-1.02h-.932v1.016c-1.077.146-1.737.813-1.737 1.615 0 2.088 3.31 1.448 3.31 2.564 0 .395-.362.683-1.044.683-.652 0-1.097-.381-1.139-.848h-1.22c.044.891.762 1.61 1.83 1.795v1.235h.932v-1.21c1.118-.124 1.8-.799 1.8-1.665z" fill="#63312d"/><path d="m58.494 46.237c-.526-.836-1.377-1.277-2.237-1.262v-.007h-5.999v2.528l-7.643 3.321h-3.663c1.719 0 3.111-1.543 3.111-3.451 0-1.903-1.393-3.452-3.111-3.452h-5.693s-2.408-4.053-7.22-4.053h-5.969v18.719h23.219c.723 0 1.814-.313 2.429-.694h.002l12.222-7.603c1.126-.97 1.368-2.749.552-4.046z" fill="#efc36a"/><path d="m43.289 59.08h-23.219c-.276 0-.5-.224-.5-.5v-18.719c0-.276.224-.5.5-.5h5.968c4.394 0 6.862 3.134 7.491 4.053h5.422c1.991 0 3.611 1.773 3.611 3.952 0 1.172-.469 2.227-1.212 2.951h1.16l7.247-3.149v-2.2c0-.276.224-.5.5-.5h5.999c.029 0 .058.002.085.007 1.034.014 1.992.568 2.575 1.496.946 1.503.661 3.563-.649 4.691l-12.284 7.648c-.007.005-.015.01-.023.014-.697.425-1.864.756-2.671.756zm-22.719-1h22.719c.633 0 1.624-.283 2.165-.619l12.224-7.603c.882-.767 1.082-2.261.394-3.355-.414-.657-1.099-1.064-1.806-1.028-.031 0-.063-.002-.094-.007h-5.414v2.028c0 .199-.118.379-.301.458l-7.644 3.321c-.063.027-.131.042-.199.042h-3.663c-.276 0-.5-.224-.5-.5s.224-.5.5-.5c1.439 0 2.611-1.324 2.611-2.951s-1.172-2.952-2.611-2.952h-5.693c-.176 0-.339-.093-.429-.244-.023-.038-2.333-3.809-6.791-3.809h-5.468z" fill="#63312d"/><path d="m52.489 46.237c-.817-1.296-2.405-1.657-3.616-.817l-12.264 5.397h-3.663c1.719 0 3.112-1.543 3.112-3.451 0-1.903-1.393-3.452-3.112-3.452h-5.693s-2.408-4.053-7.221-4.053-7.122 3.844-7.122 3.844v14.875h24.374c.722 0 1.815-.313 2.43-.694l12.223-7.603c1.125-.97 1.37-2.749.552-4.046z" fill="#f9dd9d"/><path d="m14.911 44.242s2.309-3.844 7.122-3.844c.395 0 .768.036 1.13.086-.896-.374-1.94-.623-3.13-.623-4.813 0-7.122 3.844-7.122 3.844v14.875h2z" fill="#ffeecf"/><path d="m37.285 59.08h-24.374c-.276 0-.5-.224-.5-.5v-14.875c0-.091.025-.18.071-.257.1-.167 2.513-4.086 7.55-4.086 4.394 0 6.863 3.134 7.492 4.053h5.422c1.992 0 3.612 1.773 3.612 3.952 0 1.172-.469 2.227-1.213 2.951h1.158l12.168-5.354c.598-.427 1.412-.597 2.205-.436.832.169 1.555.682 2.035 1.444.946 1.501.662 3.562-.648 4.691l-12.285 7.649c-.695.43-1.877.768-2.693.768zm-23.874-1h23.874c.623 0 1.635-.29 2.166-.619l12.223-7.603c.882-.768 1.081-2.262.393-3.354-.333-.528-.827-.883-1.389-.998-.525-.105-1.063.009-1.52.325l-12.348 5.443c-.063.028-.132.042-.201.042h-3.663c-.276 0-.5-.224-.5-.5s.224-.5.5-.5c1.44 0 2.612-1.324 2.612-2.951s-1.172-2.952-2.612-2.952h-5.693c-.176 0-.339-.093-.429-.244-.023-.038-2.333-3.81-6.792-3.81-4.065 0-6.208 2.872-6.622 3.49v14.231z" fill="#63312d"/><path d="m27.662 50.316h5.285v1h-5.285z" fill="#63312d"/><path d="m5.023 39.861h7.888v20.938h-7.888z" fill="#82d9ff" transform="matrix(-1 0 0 -1 17.935 100.66)"/><path d="m7.023 41.861h5.888v-2h-7.888v20.938h2z" fill="#caf4ff"/><path d="m12.911 61.299h-7.888c-.276 0-.5-.224-.5-.5v-20.938c0-.276.224-.5.5-.5h7.888c.276 0 .5.224.5.5v20.938c0 .277-.223.5-.5.5zm-7.388-1h6.888v-19.938h-6.888z" fill="#63312d"/></svg>