<svg id="Layer_2" enable-background="new 0 0 64 64" height="512" viewBox="0 0 64 64" width="512" xmlns="http://www.w3.org/2000/svg"><path d="m14.889 3.107v7.706h-7.704v2.687h41.392v-10.393z" fill="#db785a"/><path d="m48.577 14h-41.392c-.276 0-.5-.224-.5-.5v-2.688c0-.276.224-.5.5-.5h7.204v-7.205c0-.276.224-.5.5-.5h33.688c.276 0 .5.224.5.5v10.393c0 .276-.223.5-.5.5zm-40.892-1h40.392v-9.393h-32.688v7.205c0 .276-.224.5-.5.5h-7.204z" fill="#63312d"/><path d="m7.185 13.5h41.392v47.393h-41.392z" fill="#d1d1d1"/><path d="m48.577 61.393h-41.392c-.276 0-.5-.224-.5-.5v-47.393c0-.276.224-.5.5-.5h41.392c.276 0 .5.224.5.5v47.393c0 .276-.223.5-.5.5zm-40.892-1h40.392v-46.393h-40.392z" fill="#63312d"/><path d="m10.889 3.107v7.706h-7.704v2.687h41.392v-10.393z" fill="#f9a287"/><path d="m3.185 10.813h1.954v2.688h-1.954z" fill="#ffc8bb"/><path d="m10.889 3.107h33.688v2h-33.688z" fill="#ffc8bb"/><path d="m44.577 14h-41.392c-.276 0-.5-.224-.5-.5v-2.688c0-.276.224-.5.5-.5h7.204v-7.205c0-.276.224-.5.5-.5h33.688c.276 0 .5.224.5.5v10.393c0 .276-.223.5-.5.5zm-40.892-1h40.392v-9.393h-32.688v7.205c0 .276-.224.5-.5.5h-7.204z" fill="#63312d"/><path d="m10.889 3.107-7.704 7.706h7.704z" fill="#ffc8bb"/><path d="m10.889 11.313h-7.704c-.202 0-.385-.122-.462-.309-.078-.187-.035-.402.108-.545l7.704-7.705c.143-.144.359-.186.545-.108.187.077.309.26.309.462v7.705c0 .276-.223.5-.5.5zm-6.497-1h5.997v-5.999z" fill="#63312d"/><path d="m3.185 13.5h41.392v47.393h-41.392z" fill="#f8f3f3"/><path d="m44.577 61.393h-41.392c-.276 0-.5-.224-.5-.5v-47.393c0-.276.224-.5.5-.5h41.392c.276 0 .5.224.5.5v47.393c0 .276-.223.5-.5.5zm-40.892-1h40.392v-46.393h-40.392z" fill="#63312d"/><path d="m19.095 20.84h2.358v14.938h-2.358z" fill="#f9dd9d"/><path d="m8.778 25.99h2.358v9.787h-2.358z" fill="#f9a287"/><path d="m21.453 36.277h-2.358c-.276 0-.5-.224-.5-.5v-14.937c0-.276.224-.5.5-.5h2.358c.276 0 .5.224.5.5v14.938c0 .276-.224.499-.5.499zm-1.858-1h1.358v-13.937h-1.358z" fill="#63312d"/><path d="m11.137 36.277h-2.359c-.276 0-.5-.224-.5-.5v-9.787c0-.276.224-.5.5-.5h2.358c.276 0 .5.224.5.5v9.787c.001.277-.223.5-.499.5zm-1.859-1h1.358v-8.787h-1.358z" fill="#63312d"/><path d="m14.138 24.504h2.358v11.273h-2.358z" fill="#84dbff"/><path d="m16.497 36.277h-2.358c-.276 0-.5-.224-.5-.5v-11.273c0-.276.224-.5.5-.5h2.358c.276 0 .5.224.5.5v11.273c0 .277-.224.5-.5.5zm-1.859-1h1.358v-10.273h-1.358z" fill="#63312d"/><path d="m26.537 41.25h2.688v2.688h-2.688z" fill="#f9dd9d"/><path d="m29.225 44.438h-2.688c-.276 0-.5-.224-.5-.5v-2.688c0-.276.224-.5.5-.5h2.688c.276 0 .5.224.5.5v2.688c0 .276-.224.5-.5.5zm-2.188-1h1.688v-1.688h-1.688z" fill="#63312d"/><path d="m31.828 42.094h7.875v1h-7.875z" fill="#63312d"/><path d="m26.537 46.809h2.688v2.688h-2.688z" fill="#84dbff"/><path d="m29.225 49.996h-2.688c-.276 0-.5-.224-.5-.5v-2.688c0-.276.224-.5.5-.5h2.688c.276 0 .5.224.5.5v2.688c0 .276-.224.5-.5.5zm-2.188-1h1.688v-1.688h-1.688z" fill="#63312d"/><path d="m31.828 47.652h7.875v1h-7.875z" fill="#63312d"/><path d="m26.537 52.367h2.688v2.688h-2.688z" fill="#f9a287"/><path d="m29.225 55.555h-2.688c-.276 0-.5-.224-.5-.5v-2.688c0-.276.224-.5.5-.5h2.688c.276 0 .5.224.5.5v2.688c0 .276-.224.5-.5.5zm-2.188-1h1.688v-1.688h-1.688z" fill="#63312d"/><path d="m31.828 53.211h7.875v1h-7.875z" fill="#63312d"/><path d="m15.317 48.152 2.507 6.164c2.433-.992 4.149-3.377 4.149-6.164 0-1.797-.715-3.424-1.872-4.621z" fill="#84dbff"/><path d="m20.102 43.531c-1.21-1.254-2.905-2.035-4.785-2.035-3.676 0-6.656 2.98-6.656 6.656 0 .375.039.74.098 1.098l6.558-1.098z" fill="#f9dd9d"/><path d="m8.759 49.25c.524 3.152 3.257 5.559 6.558 5.559.888 0 1.733-.178 2.507-.492l-2.507-6.164z" fill="#f9a287"/><g fill="#63312d"><path d="m17.824 54.816c-.066 0-.132-.013-.194-.039-.123-.052-.219-.149-.27-.272l-2.507-6.164c-.077-.189-.031-.406.116-.548l4.785-4.621c.199-.191.516-.187.707.012 1.298 1.343 2.012 3.107 2.012 4.969 0 2.921-1.751 5.521-4.46 6.627-.06.024-.125.036-.189.036zm-1.916-6.539 2.184 5.368c2.07-1.043 3.382-3.148 3.382-5.493 0-1.434-.493-2.801-1.398-3.9z"/><path d="m8.759 49.75c-.104 0-.205-.032-.291-.093-.108-.077-.181-.194-.203-.325-.071-.424-.105-.81-.105-1.18 0-3.946 3.21-7.156 7.156-7.156 1.956 0 3.782.777 5.145 2.188.191.199.186.516-.013.707l-4.785 4.621c-.073.07-.165.117-.265.134l-6.558 1.098c-.026.004-.053.006-.081.006zm6.558-7.754c-3.395 0-6.156 2.762-6.156 6.156 0 .167.008.339.025.52l5.895-.987 4.299-4.152c-1.123-.995-2.548-1.537-4.063-1.537z"/><path d="m15.317 55.309c-3.51 0-6.475-2.514-7.051-5.977-.045-.272.139-.529.411-.575l6.558-1.098c.226-.041.458.088.546.305l2.507 6.164c.05.123.049.261-.003.383-.051.122-.149.219-.272.269-.865.351-1.771.529-2.696.529zm-5.963-5.652c.679 2.724 3.113 4.651 5.963 4.651.629 0 1.248-.096 1.848-.285l-2.16-5.312z"/></g><path d="m51.226 36.787c2.057 2.598 4.021 4.883 4.502 5.365 1.162 1.16 3.05 1.162 4.213-.002 1.164-1.164 1.164-3.051.003-4.213-.481-.48-2.768-2.445-5.366-4.502z" fill="#f9a287"/><path d="m57.833 43.521c-.89 0-1.78-.338-2.459-1.016-.526-.528-2.508-2.842-4.54-5.408-.158-.199-.142-.484.038-.664l3.352-3.352c.18-.179.464-.198.664-.038 2.573 2.036 4.885 4.017 5.409 4.54 1.355 1.356 1.354 3.563-.003 4.92-.678.68-1.569 1.018-2.461 1.018zm-5.938-6.696c2.017 2.531 3.78 4.565 4.188 4.975.965.964 2.538.963 3.505-.003.967-.967.968-2.54.003-3.506-.405-.404-2.438-2.165-4.975-4.187z" fill="#63312d"/><path d="m45.862 28.07c-.685.686 2.436 5.018 5.363 8.717l3.352-3.352c-3.697-2.927-8.032-6.046-8.715-5.365z" fill="#f9dd9d"/><path d="m51.226 37.287c-.01 0-.02 0-.029-.001-.143-.008-.274-.077-.362-.188-6.497-8.209-5.734-8.972-5.325-9.381.41-.411 1.17-1.174 9.379 5.327.111.088.181.221.188.362.009.143-.045.282-.146.383l-3.352 3.352c-.094.093-.222.146-.353.146zm-4.948-8.8c.09.463.746 2.14 4.991 7.549l2.557-2.557c-5.404-4.244-7.084-4.901-7.548-4.992z" fill="#63312d"/><path d="m50.542 12.514c5.613 5.609 5.613 14.713 0 20.326-5.612 5.611-14.715 5.611-20.326 0-5.614-5.613-5.613-14.713 0-20.326 5.611-5.614 14.713-5.614 20.326 0z" fill="#84dbff"/><path d="m32.216 32.84c-5.614-5.613-5.613-14.713 0-20.326 2.551-2.553 5.824-3.932 9.162-4.162-4.004-.277-8.102 1.102-11.162 4.162-5.613 5.613-5.614 14.713 0 20.326 3.06 3.061 7.158 4.438 11.163 4.16-3.339-.23-6.611-1.609-9.163-4.16z" fill="#caf4ff"/><path d="m40.379 37.542c-3.81.001-7.617-1.449-10.516-4.349-2.81-2.809-4.357-6.544-4.356-10.517 0-3.973 1.547-7.707 4.356-10.517 2.808-2.81 6.542-4.356 10.515-4.356 3.974 0 7.708 1.547 10.518 4.356 2.81 2.808 4.356 6.542 4.356 10.515 0 3.974-1.547 7.709-4.356 10.519-2.9 2.9-6.709 4.349-10.517 4.349zm-.001-28.738c-3.705 0-7.188 1.443-9.808 4.063s-4.063 6.104-4.063 9.81c0 3.705 1.443 7.189 4.063 9.81 5.408 5.409 14.209 5.409 19.619 0 2.62-2.62 4.063-6.104 4.063-9.812 0-3.706-1.443-7.188-4.063-9.808-2.621-2.62-6.105-4.063-9.811-4.063z" fill="#63312d"/><path d="m48.513 14.541c4.492 4.492 4.496 11.779 0 16.271-4.491 4.492-11.777 4.492-16.27 0-4.493-4.494-4.493-11.779 0-16.27 4.494-4.493 11.777-4.493 16.27-.001z" fill="#f8f3f3"/><path d="m40.378 34.682c-3.207 0-6.222-1.248-8.488-3.516-2.268-2.268-3.516-5.283-3.516-8.49 0-3.206 1.249-6.221 3.516-8.486 4.681-4.681 12.296-4.683 16.977-.002 2.268 2.268 3.517 5.282 3.518 8.489 0 3.208-1.249 6.223-3.518 8.489-2.267 2.267-5.282 3.516-8.489 3.516zm.002-23.004c-2.818 0-5.637 1.072-7.783 3.219-2.079 2.077-3.223 4.84-3.223 7.779 0 2.94 1.145 5.704 3.223 7.783 2.078 2.078 4.842 3.223 7.781 3.223 2.94 0 5.703-1.145 7.781-3.223 2.08-2.078 3.225-4.842 3.225-7.782-.001-2.939-1.146-5.703-3.225-7.782-2.144-2.145-4.962-3.217-7.779-3.217z" fill="#63312d"/></svg>