<svg id="Layer_2" enable-background="new 0 0 64 64" height="512" viewBox="0 0 64 64" width="512" xmlns="http://www.w3.org/2000/svg"><path d="m52.285 60.787-.505-4.264c0-6.252-5.522-11.32-11.774-11.32l-.031.018v-.018h-5.969v2.559l-4.756-2.559h-6v1.732c-3.191 2.002-5.32 5.543-5.32 9.588l-.504 4.264z" fill="#52b8d9"/><path d="m52.285 61.287h-34.859c-.143 0-.279-.062-.374-.168s-.14-.249-.123-.391l.504-4.264c-.003-3.938 1.98-7.602 5.317-9.802v-1.46c0-.276.224-.5.5-.5h6c.083 0 .164.021.237.06l4.019 2.162v-1.722c0-.276.224-.5.5-.5h5.969.031c6.653 0 12.273 5.413 12.273 11.82l.501 4.205c.018.142-.027.284-.122.391s-.23.169-.373.169zm-34.297-1h33.734l-.438-3.705c-.004-5.908-5.14-10.853-11.229-10.879-.046.006-.095.006-.138 0h-5.41v2.059c0 .176-.093.339-.243.43-.151.09-.338.095-.494.011l-4.645-2.499h-5.374v1.232c0 .172-.088.332-.234.424-3.185 1.997-5.086 5.424-5.086 9.164z" fill="#63312d"/><path d="m46.285 60.787-.505-4.264c0-6.252-5.522-11.32-11.774-11.32l-5.377 2.893-5.378-2.893c-6.252 0-11.32 5.068-11.32 11.32l-.504 4.264z" fill="#82d9ff"/><path d="m23.522 45.348-.271-.145c-6.252 0-11.32 5.068-11.32 11.32l-.504 4.264h2l.504-4.264c0-5.662 4.162-10.339 9.591-11.175z" fill="#caf4ff"/><path d="m46.285 61.287h-34.859c-.143 0-.279-.062-.374-.168s-.14-.249-.123-.391l.504-4.264c-.003-6.459 5.299-11.762 11.817-11.762.083 0 .164.021.237.06l5.142 2.766 5.14-2.766c.073-.039.154-.06.237-.06 6.653 0 12.273 5.413 12.273 11.82l.501 4.205c.018.142-.027.284-.122.391s-.23.169-.373.169zm-34.297-1h33.734l-.438-3.705c-.004-5.884-5.097-10.812-11.152-10.878l-5.266 2.832c-.147.08-.326.08-.474 0l-5.266-2.832c-5.909.066-10.696 4.895-10.696 10.819z" fill="#63312d"/><path d="m30.436 60.787 3.571-15.584-5.378 2.893-5.378-2.893 3.572 15.584z" fill="#f8f3f3"/><path d="m26.822 60.787h3.614l1.083-4.726-1.917-4.612.972-1.551-1.944-1.802-1.945 1.802.972 1.551-1.918 4.612z" fill="#f9a287"/><path d="m30.437 61.287h-3.614c-.233 0-.435-.161-.487-.389l-1.083-4.727c-.023-.102-.014-.207.026-.304l1.819-4.372-.835-1.332c-.128-.203-.093-.469.083-.633l1.945-1.803c.191-.178.488-.177.68.001l1.944 1.803c.176.163.211.429.084.632l-.835 1.332 1.818 4.372c.04.097.049.202.025.304l-1.083 4.727c-.052.228-.255.389-.487.389zm-3.216-1h2.817l.958-4.183-1.856-4.463c-.062-.15-.048-.32.038-.458l.752-1.2-1.301-1.206-1.302 1.206.752 1.2c.086.138.101.308.038.458l-1.857 4.463z" fill="#63312d"/><path d="m28.629 48.096-3.889 3.605-1.489-6.498z" fill="#f8f3f3"/><path d="m21.689 58.963 1.305 1.824h3.829l-3.572-15.584c-1.429-.006-2.634.309-2.634.309l-1.958 6.023 3.855 2.75z" fill="#f8f3f3"/><path d="m28.63 48.096 3.889 3.605 1.488-6.498z" fill="#f8f3f3"/><path d="m24.74 52.201c-.049 0-.099-.007-.147-.022-.17-.053-.3-.191-.34-.366l-1.489-6.498c-.044-.19.028-.39.184-.509.155-.12.367-.137.54-.043l5.378 2.893c.142.076.239.217.259.377s-.038.32-.156.43l-3.889 3.605c-.094.086-.216.133-.34.133zm-.756-6.036 1.05 4.582 2.742-2.542z" fill="#63312d"/><path d="m32.519 52.201c-.125 0-.246-.047-.34-.134l-3.889-3.605c-.119-.109-.177-.27-.156-.43s.117-.301.259-.377l5.376-2.893c.175-.094.384-.077.54.043.156.119.229.317.185.509l-1.488 6.498c-.04.175-.169.313-.34.366-.048.016-.098.023-.147.023zm-3.036-3.996 2.741 2.541 1.049-4.581z" fill="#63312d"/><path d="m34.265 60.787 1.305-1.824-.825-4.678 3.854-2.75-1.957-6.023s-1.205-.314-2.635-.309l-3.57 15.584z" fill="#f8f3f3"/><g fill="#63312d"><path d="m26.823 61.287h-3.829c-.161 0-.313-.078-.407-.209l-1.305-1.824c-.078-.109-.109-.245-.085-.378l.77-4.367-3.599-2.566c-.178-.127-.252-.354-.185-.562l1.958-6.023c.053-.162.185-.286.349-.329.051-.014 1.262-.325 2.721-.325.251-.003.473.148.527.389l3.572 15.584c.034.148-.001.304-.096.423s-.239.187-.391.187zm-3.572-1h2.944l-3.341-14.577c-.8.03-1.491.152-1.85.227l-1.757 5.404 3.557 2.537c.157.112.235.305.202.494l-.789 4.471z"/><path d="m34.265 61.287h-3.828c-.152 0-.296-.069-.391-.188s-.13-.274-.096-.423l3.57-15.584c.055-.24.276-.394.527-.389 1.459 0 2.67.312 2.721.325.165.043.297.167.35.329l1.957 6.023c.067.207-.008.435-.186.562l-3.598 2.566.771 4.367c.023.133-.008.269-.086.378l-1.305 1.824c-.094.132-.245.21-.406.21zm-3.201-1h2.944l1.032-1.444-.788-4.471c-.034-.189.045-.382.202-.494l3.556-2.537-1.756-5.404c-.358-.074-1.051-.196-1.851-.227z"/><path d="m27.657 50.949h2.049v1h-2.049z"/><path d="m11.311 42.789c-.128 0-.256-.049-.354-.146-10.968-10.969-10.968-28.815 0-39.783.195-.195.512-.195.707 0l2.034 2.033c.094.094.146.221.146.354s-.053.26-.146.354c-9.456 9.457-9.456 24.846.001 34.303.094.094.146.221.146.354s-.053.26-.146.354l-2.035 2.033c-.098.095-.226.144-.353.144zm.003-38.866c-10.111 10.485-10.111 27.17 0 37.656l1.328-1.327c-9.379-9.753-9.379-25.249-.001-35.002z"/><path d="m15.734 38.365c-.128 0-.256-.049-.354-.146-8.527-8.529-8.528-22.406 0-30.936.195-.195.512-.195.707 0l2.035 2.033c.094.094.146.221.146.354s-.053.26-.146.354c-7.018 7.019-7.017 18.438.001 25.455.094.094.146.221.146.354s-.053.26-.146.354l-2.035 2.033c-.098.096-.226.145-.354.145zm.004-30.017c-7.672 8.045-7.671 20.762.001 28.807l1.328-1.327c-6.942-7.313-6.942-18.84-.001-26.152z"/><path d="m52.689 42.789c-.128 0-.256-.049-.354-.146l-2.034-2.033c-.094-.094-.146-.221-.146-.354s.053-.26.146-.354c9.456-9.457 9.456-24.846 0-34.303-.094-.094-.146-.221-.146-.354s.053-.26.146-.354l2.034-2.033c.195-.195.512-.195.707 0 10.968 10.968 10.968 28.814 0 39.783-.097.099-.225.148-.353.148zm-1.33-2.537 1.327 1.327c10.11-10.486 10.11-27.171 0-37.656l-1.327 1.327c9.378 9.753 9.378 25.249 0 35.002z"/><path d="m48.266 38.365c-.128 0-.256-.049-.354-.146l-2.034-2.033c-.094-.094-.146-.221-.146-.354s.053-.26.146-.354c7.018-7.018 7.018-18.438 0-25.455-.094-.094-.146-.221-.146-.354s.053-.26.146-.354l2.035-2.033c.195-.195.512-.195.707 0 8.527 8.529 8.526 22.407-.001 30.936-.098.098-.225.147-.353.147zm-1.332-2.538 1.328 1.327c7.672-8.045 7.672-20.762.001-28.807l-1.328 1.327c6.941 7.313 6.941 18.841-.001 26.153z"/></g><path d="m29.721 41.195c0 1.1.9 2 2 2h5.749c1.101 0 2-.9 2-2v-1.949h-9.749z" fill="#db785a"/><path d="m37.47 43.695h-5.749c-1.378 0-2.5-1.121-2.5-2.5v-1.949c0-.276.224-.5.5-.5h9.749c.276 0 .5.224.5.5v1.949c0 1.379-1.121 2.5-2.5 2.5zm-7.249-3.949v1.449c0 .827.673 1.5 1.5 1.5h5.749c.827 0 1.5-.673 1.5-1.5v-1.449z" fill="#63312d"/><path d="m34.597 9.994h-6.001v1.5c-4.02 2.149-6.758 6.383-6.758 11.26 0 3.152 1.149 6.031 3.044 8.258.01.015 3.638 3.988 3.638 3.988.231.309.445.707.628 1.143h10.895c.184-.436.397-.834.628-1.143 0 0 3.182-3.48 3.193-3.498 2.156-2.285 3.488-5.358 3.488-8.748 0-7.047-5.71-12.76-12.755-12.76z" fill="#efc36a"/><path d="m40.043 36.643h-10.895c-.201 0-.383-.12-.461-.306-.175-.417-.372-.775-.568-1.037-3.624-3.965-3.625-3.967-3.656-4.014-2.002-2.348-3.126-5.396-3.126-8.532 0-4.802 2.582-9.202 6.758-11.556v-1.204c0-.276.224-.5.5-.5h6.001c7.31 0 13.256 5.948 13.256 13.26 0 3.386-1.287 6.614-3.625 9.091.002-.001.004-.003.004-.003.003 0-.211.235-3.191 3.495-.164.225-.36.583-.536 1-.078.185-.26.306-.461.306zm-10.57-1h10.246c.172-.365.356-.681.552-.941.031-.038 3.105-3.401 3.216-3.526 2.176-2.307 3.366-5.292 3.366-8.421 0-6.76-5.498-12.26-12.256-12.26h-5.501v1c0 .185-.102.354-.264.441-4.005 2.141-6.494 6.286-6.494 10.818 0 2.899 1.039 5.717 2.925 7.934.109.124 3.626 3.976 3.626 3.976.22.289.41.611.584.979z" fill="#63312d"/><path d="m29.721 38.6v.646h9.749v-.646c0-.715.231-1.648.573-2.457h-10.895c.342.808.573 1.742.573 2.457z" fill="#d1d1d1"/><path d="m39.47 39.746h-9.749c-.276 0-.5-.224-.5-.5v-.646c0-.618-.204-1.485-.533-2.263-.065-.154-.049-.331.044-.471.092-.14.249-.224.417-.224h10.895c.168 0 .324.084.417.224s.108.316.044.471c-.33.779-.534 1.646-.534 2.263v.646c-.001.276-.225.5-.501.5zm-9.249-1h8.749v-.146c0-.563.128-1.261.354-1.957h-9.457c.225.695.353 1.393.353 1.957v.146z" fill="#63312d"/><path d="m23.721 41.195c0 1.1.9 2 2 2h5.75c1.1 0 1.999-.9 1.999-2v-1.949h-9.749z" fill="#f9a287"/><path d="m25.721 41.195v-1.949h-2v1.949c0 1.1.9 2 2 2h2c-1.1 0-2-.9-2-2z" fill="#ffc8bb"/><path d="m31.471 43.695h-5.75c-1.378 0-2.5-1.121-2.5-2.5v-1.949c0-.276.224-.5.5-.5h9.749c.276 0 .5.224.5.5v1.949c0 1.379-1.121 2.5-2.499 2.5zm-7.25-3.949v1.449c0 .827.673 1.5 1.5 1.5h5.75c.827 0 1.499-.673 1.499-1.5v-1.449z" fill="#63312d"/><path d="m37.864 31.502c2.156-2.285 3.488-5.358 3.488-8.748 0-7.047-5.711-12.76-12.756-12.76-7.046 0-12.759 5.713-12.759 12.76 0 3.152 1.149 6.031 3.044 8.258.011.015 3.639 3.988 3.639 3.988.231.309.445.707.628 1.143h10.895c.184-.436.397-.834.628-1.143 0 0 3.181-3.48 3.193-3.498z" fill="#f9dd9d"/><path d="m20.882 31.012c-1.895-2.226-3.044-5.105-3.044-8.258 0-6.709 5.182-12.197 11.759-12.709-.331-.027-.663-.051-1-.051-7.046 0-12.759 5.713-12.759 12.76 0 3.152 1.149 6.031 3.044 8.258.01.015 3.638 3.988 3.638 3.988.231.309.445.707.628 1.143h2c-.184-.436-.397-.834-.628-1.143 0 0-3.628-3.973-3.638-3.988z" fill="#ffeecf"/><path d="m34.043 36.643h-10.895c-.201 0-.383-.12-.461-.306-.175-.417-.372-.775-.568-1.037-3.624-3.965-3.625-3.967-3.656-4.014-2.002-2.348-3.126-5.396-3.126-8.532 0-7.312 5.948-13.26 13.259-13.26 7.31 0 13.256 5.948 13.256 13.26 0 3.386-1.287 6.614-3.625 9.091h-.001c-.141.16-.703.776-3.187 3.492-.164.225-.36.583-.536 1-.077.185-.259.306-.46.306zm-10.57-1h10.246c.172-.365.356-.681.552-.941.031-.038 3.105-3.401 3.216-3.526.003-.005.005-.007.006-.009-.001.001-.001.001 0 .001 0 0 .002-.002.009-.008 2.161-2.291 3.352-5.276 3.352-8.405 0-6.76-5.498-12.26-12.256-12.26-6.759 0-12.259 5.5-12.259 12.26 0 2.899 1.039 5.717 2.925 7.934.109.124 3.626 3.976 3.626 3.976.219.288.409.61.583.978z" fill="#63312d"/><path d="m23.721 38.6v.646h9.749v-.646c0-.715.231-1.648.573-2.457h-10.895c.342.808.573 1.742.573 2.457z" fill="#fff"/><path d="m33.47 39.746h-9.749c-.276 0-.5-.224-.5-.5v-.646c0-.618-.204-1.485-.533-2.263-.065-.154-.049-.331.044-.471.092-.14.249-.224.417-.224h10.895c.168 0 .324.084.417.224s.108.316.044.471c-.33.779-.534 1.646-.534 2.263v.646c-.001.276-.225.5-.501.5zm-9.249-1h8.749v-.146c0-.563.128-1.261.354-1.957h-9.457c.225.695.353 1.393.353 1.957v.146z" fill="#63312d"/></svg>