<svg id="Layer_2" enable-background="new 0 0 64 64" height="512" viewBox="0 0 64 64" width="512" xmlns="http://www.w3.org/2000/svg"><path d="m35 3.206h-6v3.86c-3.877 1.693-9.869 3.304-18.649 3.304v16.165c0 10.309 5.405 23.376 18.649 31.276v2.982h6c17.635-7.184 24.649-22.512 24.649-34.259 0-6.255 0-16.165 0-16.165-18.522.001-24.649-7.163-24.649-7.163z" fill="#efc36a"/><path d="m35 61.294h-6c-.276 0-.5-.224-.5-.5v-2.699c-13.744-8.322-18.649-21.739-18.649-31.56v-16.165c0-.276.224-.5.5-.5 7.14 0 13.244-1.054 18.149-3.133v-3.531c0-.276.224-.5.5-.5h6c.146 0 .284.064.379.174.06.07 6.247 6.99 24.27 6.99.276 0 .5.224.5.5v16.165c0 11.326-6.537 27.216-24.961 34.722-.059.024-.124.037-.188.037zm-5.5-1h5.402c17.894-7.334 24.248-22.762 24.248-33.759v-15.667c-16.78-.115-23.281-6.033-24.369-7.162h-5.281v3.36c0 .199-.118.379-.3.458-4.969 2.17-11.14 3.295-18.35 3.344v15.667c0 9.604 4.835 22.752 18.406 30.847.151.091.244.254.244.43z" fill="#63312d"/><path d="m29 3.206s-6.127 7.164-24.649 7.164v16.165c0 11.747 7.014 27.074 24.649 34.259 17.635-7.184 24.649-22.512 24.649-34.259 0-6.255 0-16.165 0-16.165-18.522 0-24.649-7.164-24.649-7.164z" fill="#f9dd9d"/><path d="m6.351 28.535c0-6.255 0-16.165 0-16.165 15.673 0 22.591-5.893 24.35-7.707-1.182-.853-1.701-1.457-1.701-1.457s-6.127 7.164-24.649 7.164v16.165c0 8.325 3.529 18.446 11.86 26.195-6.9-7.436-9.86-16.569-9.86-24.195z" fill="#ffeecf"/><path d="m29 61.294c-.064 0-.128-.013-.188-.037-18.424-7.506-24.961-23.396-24.961-34.722v-16.165c0-.276.224-.5.5-.5 18.023 0 24.21-6.92 24.27-6.99.19-.219.568-.219.759 0 .06.07 6.247 6.99 24.27 6.99.276 0 .5.224.5.5v16.165c0 11.326-6.537 27.216-24.961 34.722-.061.024-.125.037-.189.037zm-24.149-50.426v15.667c0 10.978 6.328 26.369 24.149 33.719 17.821-7.35 24.149-22.741 24.149-33.719v-15.667c-15.891-.109-22.563-5.423-24.149-6.944-1.586 1.521-8.258 6.835-24.149 6.944z" fill="#63312d"/><path d="m29 8.703s-4.958 5.797-19.943 5.797v13.079c0 9.503 5.675 21.904 19.943 27.717 14.269-5.813 19.943-18.214 19.943-27.717 0-5.062 0-13.079 0-13.079-14.985 0-19.943-5.797-19.943-5.797z" fill="#82d9ff"/><path d="m11.057 29.579c0-5.062 0-13.079 0-13.079 11.787 0 17.715-4.44 19.716-6.341-1.238-.835-1.773-1.456-1.773-1.456s-4.958 5.797-19.943 5.797v13.079c0 6.787 2.917 15.041 9.769 21.328-5.425-5.972-7.769-13.241-7.769-19.328z" fill="#caf4ff"/><path d="m29 55.796c-.064 0-.128-.013-.188-.037-14.95-6.09-20.255-18.986-20.255-28.18v-13.079c0-.276.224-.5.5-.5 14.527 0 19.516-5.566 19.564-5.623.189-.219.568-.219.758 0 .049.057 5.038 5.623 19.564 5.623.276 0 .5.224.5.5v13.079c0 9.193-5.305 22.09-20.255 28.18-.06.024-.124.037-.188.037zm-19.443-40.798v12.581c0 8.845 5.096 21.242 19.443 27.177 14.347-5.935 19.443-18.332 19.443-27.177v-12.581c-12.602-.107-18.037-4.267-19.443-5.583-1.406 1.316-6.841 5.476-19.443 5.583z" fill="#63312d"/><path d="m26.027 38.901c-.572 0-1.148-.224-1.582-.659l-7.927-7.881c-.871-.875-.866-2.288.008-3.158.873-.872 2.288-.866 3.16.011l6.442 6.388 12.291-11.224c.927-.814 2.339-.729 3.153.198.818.925.73 2.339-.195 3.152l-13.871 12.615c-.424.375-.952.558-1.479.558z" fill="#f8f3f3"/><path d="m26.027 39.401c-.719 0-1.425-.294-1.936-.806l-7.926-7.88c-1.064-1.069-1.061-2.803.007-3.867.515-.514 1.198-.796 1.925-.796.763.006 1.424.287 1.942.809l6.102 6.05 11.939-10.902c.556-.489 1.257-.725 1.987-.685.729.046 1.397.373 1.879.922.483.547.725 1.251.679 1.981-.045.729-.372 1.396-.92 1.877l-13.862 12.609c-.505.445-1.148.688-1.816.688zm-7.929-12.348c-.46 0-.893.179-1.219.504-.678.676-.68 1.775-.006 2.452l7.925 7.879c.631.632 1.722.659 2.378.08l13.865-12.609c.353-.311.56-.732.588-1.194.029-.463-.124-.909-.432-1.257-.306-.349-.729-.556-1.19-.584-.46-.032-.909.124-1.258.431l-12.284 11.216c-.196.181-.5.172-.689-.014l-6.442-6.388c-.331-.333-.768-.516-1.232-.517-.002.001-.003.001-.004.001z" fill="#63312d"/></svg>