<svg id="Layer_2" enable-background="new 0 0 64 64" height="512" viewBox="0 0 64 64" width="512" xmlns="http://www.w3.org/2000/svg"><path d="m34.7 34.91h-5.401v1.428c-3.151 1.78-5.341 5.063-5.586 8.888h5.586 5.401 10.985c-.37-5.763-5.138-10.313-10.985-10.316z" fill="#52b8d9"/><path d="m45.686 45.726h-21.973c-.138 0-.27-.058-.365-.158-.094-.101-.143-.236-.134-.374.243-3.795 2.324-7.191 5.585-9.143v-1.141c0-.276.224-.5.5-.5h5.401c6.052.003 11.096 4.739 11.484 10.783.009.138-.04.273-.135.374-.093.101-.226.159-.363.159zm-21.427-1h20.879c-.605-5.263-5.092-9.313-10.438-9.315h-4.901v.928c0 .181-.097.347-.254.436-2.956 1.668-4.902 4.614-5.286 7.951z" fill="#63312d"/><path d="m40.287 45.226c-.37-5.763-5.142-10.315-10.988-10.315s-10.616 4.553-10.985 10.315z" fill="#82d9ff"/><path d="m30.299 34.959c-.33-.03-.663-.049-1-.049-5.846 0-10.616 4.553-10.985 10.315h2c.348-5.429 4.604-9.782 9.985-10.266z" fill="#caf4ff"/><path d="m40.287 45.726h-21.973c-.138 0-.27-.058-.365-.158-.094-.101-.143-.236-.134-.374.387-6.047 5.432-10.783 11.484-10.783 6.053 0 11.098 4.736 11.487 10.783.009.138-.04.273-.135.374-.093.1-.226.158-.364.158zm-21.426-1h20.879c-.605-5.266-5.093-9.315-10.441-9.315-5.347-.001-9.833 4.049-10.438 9.315z" fill="#63312d"/><path d="m34.65 36.308c-1.585-.885-3.406-1.397-5.351-1.397-1.944 0-3.763.513-5.347 1.395l5.348 5.352z" fill="#f8f3f3"/><path d="m29.301 42.156c-.133 0-.26-.053-.354-.146l-5.348-5.352c-.111-.111-.164-.268-.142-.423.021-.155.115-.291.252-.367 3.428-1.91 7.763-1.907 11.185.003.137.076.229.213.251.368.021.154-.031.312-.142.422l-5.35 5.349c-.092.094-.22.146-.352.146zm-4.511-5.721 4.511 4.515 4.513-4.512c-2.818-1.347-6.201-1.348-9.024-.003z" fill="#63312d"/><path d="m34.7 18.774h-5.401v2.089c-1.634 1.477-2.667 3.604-2.667 5.98 0 2.375 1.033 4.503 2.667 5.98v2.086h5.401c4.457 0 8.067-3.613 8.067-8.066.001-4.456-3.61-8.069-8.067-8.069z" fill="#efc36a"/><path d="m34.7 35.41h-5.401c-.276 0-.5-.224-.5-.5v-1.868c-1.697-1.617-2.667-3.863-2.667-6.198s.969-4.581 2.667-6.198v-1.871c0-.276.224-.5.5-.5h5.401c4.724 0 8.567 3.844 8.567 8.569.001 4.723-3.843 8.566-8.567 8.566zm-4.901-1h4.901c4.173 0 7.567-3.395 7.567-7.566 0-4.174-3.395-7.569-7.567-7.569h-4.901v1.589c0 .142-.06.276-.165.371-1.59 1.438-2.502 3.482-2.502 5.609s.912 4.172 2.502 5.609c.105.095.165.229.165.371z" fill="#63312d"/><path d="m34.7 18.774h-5.401v2.089c-1.492 1.348-2.472 3.241-2.633 5.369h16.071c-.313-4.167-3.787-7.458-8.037-7.458z" fill="#db785a"/><path d="m42.737 26.732h-16.071c-.139 0-.272-.058-.367-.16s-.143-.239-.132-.378c.161-2.123 1.093-4.085 2.632-5.549v-1.871c0-.276.224-.5.5-.5h5.401c4.452 0 8.201 3.479 8.536 7.921.01.139-.038.275-.133.377-.094.103-.227.16-.366.16zm-15.512-1h14.954c-.542-3.662-3.728-6.458-7.479-6.458h-4.901v1.589c0 .142-.06.276-.165.371-1.311 1.185-2.154 2.766-2.409 4.498z" fill="#63312d"/><path d="m37.369 26.844c0 4.453-3.61 8.066-8.067 8.066-4.456 0-8.068-3.613-8.068-8.066 0-4.457 3.612-8.069 8.068-8.069 4.457-.001 8.067 3.612 8.067 8.069z" fill="#f9dd9d"/><path d="m29.306 24.118 1.653 2.114h6.38c-.313-4.168-3.787-7.458-8.037-7.458-4.248 0-7.723 3.29-8.037 7.458h6.388z" fill="#f9a287"/><path d="m30.3 18.843c-.328-.04-.659-.068-.998-.068-4.248 0-7.723 3.29-8.037 7.458h2c.288-3.837 3.253-6.92 7.035-7.39z" fill="#ffc8bb"/><path d="m37.339 26.732h-6.38c-.154 0-.299-.071-.394-.192l-1.259-1.61-1.258 1.61c-.095.121-.24.192-.394.192h-6.388c-.139 0-.272-.058-.367-.16s-.142-.238-.132-.377c.334-4.441 4.083-7.921 8.535-7.921s8.201 3.479 8.536 7.921c.01.139-.038.275-.133.377-.095.103-.227.16-.366.16zm-6.137-1h5.578c-.542-3.662-3.728-6.458-7.479-6.458-3.75 0-6.936 2.796-7.478 6.458h5.586l1.502-1.922c.189-.242.599-.242.788 0z" fill="#63312d"/><path d="m29.302 35.41c-4.724 0-8.568-3.843-8.568-8.566 0-4.726 3.844-8.569 8.568-8.569s8.567 3.844 8.567 8.569c0 4.723-3.844 8.566-8.567 8.566zm0-16.136c-4.173 0-7.568 3.396-7.568 7.569 0 4.172 3.395 7.566 7.568 7.566s7.567-3.395 7.567-7.566c0-4.173-3.394-7.569-7.567-7.569z" fill="#63312d"/><path d="m32 3.306c-15.822 0-28.694 12.872-28.694 28.694s12.872 28.694 28.694 28.694 28.694-12.872 28.694-28.694-12.872-28.694-28.694-28.694zm1.47 54.356v-9.231h-2.938v9.231c-13.008-.736-23.458-11.185-24.195-24.192h9.232v-2.938h-9.232c.737-13.009 11.187-23.458 24.194-24.194v9.231h2.938v-9.231c13.008.737 23.457 11.187 24.193 24.193h-9.232v2.938h9.232c-.736 13.008-11.185 23.456-24.192 24.193z" fill="#f9dd9d"/><path d="m5.306 32c0-15.486 12.334-28.139 27.694-28.669-.333-.012-.665-.025-1-.025-15.822 0-28.694 12.872-28.694 28.694s12.872 28.694 28.694 28.694c.335 0 .667-.014 1-.025-15.36-.53-27.694-13.183-27.694-28.669z" fill="#ffeecf"/><path d="m32 61.194c-16.098 0-29.194-13.096-29.194-29.194s13.096-29.194 29.194-29.194 29.194 13.096 29.194 29.194-13.096 29.194-29.194 29.194zm0-57.388c-15.546 0-28.194 12.647-28.194 28.194s12.648 28.194 28.194 28.194c15.547 0 28.194-12.647 28.194-28.194s-12.647-28.194-28.194-28.194zm1.47 54.356c-.127 0-.25-.049-.344-.137-.1-.095-.156-.226-.156-.363v-8.731h-1.938v8.731c0 .138-.057.269-.157.363s-.236.147-.372.136c-13.307-.753-23.911-11.356-24.665-24.663-.008-.138.041-.271.136-.372.094-.1.226-.156.363-.156h8.732v-1.938h-8.732c-.138 0-.269-.057-.363-.156-.095-.101-.144-.234-.136-.372.754-13.309 11.358-23.912 24.665-24.665.137-.021.272.041.372.136s.157.226.157.363v8.731h1.938v-8.731c0-.138.057-.269.156-.363.102-.095.24-.144.372-.136 13.308.754 23.911 11.357 24.664 24.664.008.138-.041.271-.136.372-.095.1-.226.156-.363.156h-8.732v1.938h8.732c.138 0 .269.057.363.156.095.101.144.234.136.372-.754 13.306-11.357 23.909-24.664 24.663-.01.002-.019.002-.028.002zm-26.598-24.192c.958 12.375 10.784 22.2 23.159 23.158v-8.697c0-.276.224-.5.5-.5h2.938c.276 0 .5.224.5.5v8.697c12.374-.959 22.2-10.784 23.159-23.158h-8.698c-.276 0-.5-.224-.5-.5v-2.938c0-.276.224-.5.5-.5h8.698c-.957-12.375-10.783-22.201-23.158-23.16v8.697c0 .276-.224.5-.5.5h-2.938c-.276 0-.5-.224-.5-.5v-8.697c-12.376.958-22.202 10.784-23.16 23.159h8.697c.276 0 .5.224.5.5v2.938c0 .276-.224.5-.5.5h-8.697z" fill="#63312d"/></svg>